<svg width="282" height="139" viewBox="0 0 282 139" fill="none" xmlns="http://www.w3.org/2000/svg">
<mask id="path-1-outside-1_2001_3" maskUnits="userSpaceOnUse" x="82" y="99" width="117" height="15" fill="black">
<rect fill="white" x="82" y="99" width="117" height="15"/>
<path d="M90.509 104.366C94.029 105.158 93.963 110.196 90.751 111.626C89.497 112.11 88.639 111.978 87.869 111.956C87.055 111.956 84.679 112.198 84.085 111.692C83.557 111.274 83.755 110.328 83.777 109.756C83.887 107.644 83.843 105.554 83.887 103.442C83.887 102.672 83.821 101.836 84.041 101.022C84.305 100.054 87.825 100.516 89.013 100.56C89.365 100.56 90.531 100.56 90.817 100.758C90.905 100.802 90.905 100.934 90.927 101.022C90.949 101.33 90.883 103.024 90.861 103.332C90.861 103.706 90.289 103.53 89.893 103.486C89.431 103.442 87.891 103.376 87.495 103.574C87.187 103.706 87.385 104.102 87.363 104.388C87.869 104.366 89.673 104.19 90.509 104.366ZM88.485 109.206C89.695 109.118 90.245 107.644 89.563 106.984C88.903 106.434 87.561 106.94 87.297 106.984C87.297 107.182 87.275 108.788 87.297 108.986C87.319 109.294 88.485 109.206 88.485 109.206ZM99.0741 108.216C99.2721 108.062 99.9541 107.644 100.218 108.018C100.592 108.568 101.45 109.932 100.944 110.504C98.8321 112.858 94.2561 111.516 93.5741 108.546C92.9361 105.95 93.4421 102.54 96.1041 101.66C98.8981 100.736 101.494 101.88 101.648 104.366C101.736 105.73 101.67 107.358 99.7561 107.622C98.8761 107.754 97.1601 107.424 96.9841 107.71C96.4341 108.634 97.9961 109.008 99.0741 108.216ZM97.5121 103.904C96.7201 104.498 96.6321 105.686 97.4901 105.686C99.3601 105.686 98.8761 102.848 97.5121 103.904ZM108.354 106.478C109.872 106.676 111.038 107.6 111.038 109.272C111.038 111.868 106.858 111.978 106.858 111.978C105.956 111.956 103.404 111.978 102.04 112.022C101.754 112.022 101.534 111.758 101.6 111.494C101.754 111.01 101.908 110.526 102.106 110.042C102.26 109.734 102.392 109.426 102.524 109.096C102.612 108.876 102.876 108.788 103.118 108.876C103.954 109.206 105.912 109.448 106.572 109.338C106.88 109.294 107.166 109.206 107.452 109.096C107.958 108.942 108.09 108.37 107.738 108.018C107.474 107.754 105.186 107.82 104.79 107.82C104.702 107.82 104.394 107.666 104.13 107.512C103.888 107.38 103.844 107.05 104.064 106.874C104.834 106.28 106 105.686 106.484 105.4C106.022 105.334 103.734 105.312 103.272 105.334C103.118 105.334 103.008 105.29 102.964 105.136C102.876 104.85 102.942 102.87 102.964 102.54C102.986 102.188 102.986 102.078 103.228 102.078C104.46 101.99 106.748 101.968 107.98 102.078C108.552 102.122 109.278 102.122 109.652 102.518C109.982 102.87 110.07 104.52 109.894 104.96C109.608 105.686 108.354 106.478 108.354 106.478ZM122.165 104.982C122.407 107.27 122.121 110.922 117.743 111.626C116.643 111.802 115.477 111.648 114.421 111.296C113.827 111.098 113.255 110.856 112.793 110.438C111.803 109.536 111.231 108.106 111.231 106.808C111.187 105.202 111.803 103.794 113.101 102.518C113.739 101.88 114.641 101.462 115.543 101.264C118.271 100.582 121.835 101.99 122.165 104.982ZM116.687 108.15C118.447 107.996 119.129 106.148 118.161 104.982C117.809 104.564 117.127 104.366 116.577 104.476C114.003 104.938 113.871 108.392 116.687 108.15ZM133.204 111.384C133.49 111.758 132.5 111.934 131.422 111.912C127.198 112.858 129.728 106.676 129.31 105.246C128.936 103.288 126.824 104.586 126.648 106.038C126.538 107.116 126.868 109.844 126.67 111.164C126.868 112.044 124.47 111.406 123.304 111.538C122.05 111.56 123.304 103.442 123.15 102.254C123.194 101.704 123.128 101.352 123.612 101.374C124.426 101.55 126.582 101.132 127.022 101.682C127.088 101.99 126.978 102.188 126.978 102.54C127.462 102.144 128.804 101.484 129.508 101.418C135.47 100.934 131.18 108.546 133.204 111.384ZM142.028 104.74C141.984 106.852 142.138 109.338 142.468 110.944C142.512 111.098 142.358 111.208 142.204 111.23C140.4 111.648 137.87 111.736 136.638 111.692C134.856 111.626 133.492 110.746 133.558 108.634C133.624 107.006 134.68 105.972 136.264 105.642C137.958 105.29 138.772 103.684 136.506 104.036C135.934 104.124 135.384 104.366 134.856 104.498C134.592 104.586 134.504 104.52 134.46 104.212C134.438 103.992 134.284 102.826 134.262 102.584C134.218 102.32 134.24 102.166 134.46 102.078C137.21 100.802 142.072 100.362 142.028 104.74ZM137.914 108.964C138.772 108.854 138.706 107.16 138.024 107.204C137.056 107.248 136.572 109.184 137.914 108.964ZM151.158 110.174C151.224 110.372 150.85 110.526 150.674 110.636C150.476 110.746 150.3 110.878 150.08 110.966C143.964 114.002 141.28 106.918 143.678 102.848C144.14 102.078 145.064 101.396 145.988 101.11C146.736 100.912 147.528 100.956 148.298 101C148.518 101 149.178 101.044 149.354 101.11C149.662 101.242 149.596 101.308 149.53 101.616C149.442 101.924 149.09 103.464 149.09 103.772C149.068 104.036 149.024 104.058 148.738 104.058C148.232 104.036 147.704 103.992 147.22 104.146C145.834 104.63 145.768 108.106 147.484 108.634C148.276 108.876 149.156 108.37 149.596 108.26C149.926 108.172 149.992 108.37 150.19 108.634C150.322 108.832 151.114 109.932 151.158 110.174ZM161.214 111.714C161.236 112 161.214 112.308 159.696 112.308C156.66 112.308 157.716 111.912 157.54 109.602C157.144 109.624 156.066 109.646 155.296 109.668C155.34 109.954 155.296 110.966 155.34 111.274C155.362 111.956 155.802 112.594 154.636 112.594C153.844 112.594 151.754 112.88 151.732 112.132C151.666 109.646 151.16 105.686 151.204 103.156C151.27 102.386 153.338 102.87 153.712 102.738C153.91 102.716 154.504 102.628 154.658 102.782C154.856 104.432 154.812 105.62 154.988 107.204C155.626 107.204 156.638 107.182 157.276 107.182C157.232 105.092 156.814 103.772 157.254 102.826C157.606 102.694 159.234 102.738 159.608 102.738C160.598 102.562 160.752 102.826 160.642 103.706C160.774 106.852 160.884 108.766 161.214 111.714ZM172.49 104.982C172.732 107.27 172.446 110.922 168.068 111.626C166.968 111.802 165.802 111.648 164.746 111.296C164.152 111.098 163.58 110.856 163.118 110.438C162.128 109.536 161.556 108.106 161.556 106.808C161.512 105.202 162.128 103.794 163.426 102.518C164.064 101.88 164.966 101.462 165.868 101.264C168.596 100.582 172.16 101.99 172.49 104.982ZM167.012 108.15C168.772 107.996 169.454 106.148 168.486 104.982C168.134 104.564 167.452 104.366 166.902 104.476C164.328 104.938 164.196 108.392 167.012 108.15ZM181.242 110.174C181.308 110.372 180.934 110.526 180.758 110.636C180.56 110.746 180.384 110.878 180.164 110.966C174.048 114.002 171.364 106.918 173.762 102.848C174.224 102.078 175.148 101.396 176.072 101.11C176.82 100.912 177.612 100.956 178.382 101C178.602 101 179.262 101.044 179.438 101.11C179.746 101.242 179.68 101.308 179.614 101.616C179.526 101.924 179.174 103.464 179.174 103.772C179.152 104.036 179.108 104.058 178.822 104.058C178.316 104.036 177.788 103.992 177.304 104.146C175.918 104.63 175.852 108.106 177.568 108.634C178.36 108.876 179.24 108.37 179.68 108.26C180.01 108.172 180.076 108.37 180.274 108.634C180.406 108.832 181.198 109.932 181.242 110.174ZM188.033 102.166C188.385 102.122 188.363 102.562 188.341 102.892C188.341 103.354 188.319 103.816 188.319 104.278C188.319 104.366 188.297 104.476 188.253 104.542C188.165 104.63 188.011 104.652 187.879 104.652C187.395 104.652 186.405 104.608 185.921 104.586C185.877 105.906 185.943 110.922 185.987 112.22C185.987 112.484 185.745 112.638 185.481 112.638C184.689 112.66 183.875 112.638 183.083 112.638C182.841 112.638 182.511 112.638 182.357 112.44C182.313 112.352 182.291 112.242 182.291 112.132C182.291 110.856 182.247 105.862 182.225 104.586C182.071 104.586 180.773 104.608 180.619 104.608C180.553 104.586 180.487 104.564 180.443 104.52C180.377 104.454 180.355 104.366 180.333 104.278C180.289 104.036 180.289 102.848 180.333 102.606C180.333 102.496 180.355 102.43 180.421 102.364C180.619 102.1 187.593 102.21 188.033 102.166ZM192.313 103.86C196.295 103.046 198.473 105.576 197.351 108.898C196.405 111.67 193.787 112.198 189.651 111.956C189.255 111.934 188.705 111.824 188.771 111.34C188.969 109.932 189.035 108.502 188.969 107.094C188.947 106.456 188.661 103.2 188.529 102.584C188.507 102.452 188.397 102.078 188.463 101.99C188.595 101.814 189.123 101.726 189.321 101.704C189.651 101.66 191.235 101.506 191.565 101.528C191.697 101.528 191.829 101.638 191.895 101.726C192.093 102.078 192.269 103.486 192.313 103.86ZM192.423 109.184C193.699 109.778 194.447 108.458 194.249 107.248C194.139 106.5 193.061 106.236 192.445 106.654C192.467 107.314 192.423 108.524 192.423 109.184Z"/>
</mask>
<path d="M90.509 104.366C94.029 105.158 93.963 110.196 90.751 111.626C89.497 112.11 88.639 111.978 87.869 111.956C87.055 111.956 84.679 112.198 84.085 111.692C83.557 111.274 83.755 110.328 83.777 109.756C83.887 107.644 83.843 105.554 83.887 103.442C83.887 102.672 83.821 101.836 84.041 101.022C84.305 100.054 87.825 100.516 89.013 100.56C89.365 100.56 90.531 100.56 90.817 100.758C90.905 100.802 90.905 100.934 90.927 101.022C90.949 101.33 90.883 103.024 90.861 103.332C90.861 103.706 90.289 103.53 89.893 103.486C89.431 103.442 87.891 103.376 87.495 103.574C87.187 103.706 87.385 104.102 87.363 104.388C87.869 104.366 89.673 104.19 90.509 104.366ZM88.485 109.206C89.695 109.118 90.245 107.644 89.563 106.984C88.903 106.434 87.561 106.94 87.297 106.984C87.297 107.182 87.275 108.788 87.297 108.986C87.319 109.294 88.485 109.206 88.485 109.206ZM99.0741 108.216C99.2721 108.062 99.9541 107.644 100.218 108.018C100.592 108.568 101.45 109.932 100.944 110.504C98.8321 112.858 94.2561 111.516 93.5741 108.546C92.9361 105.95 93.4421 102.54 96.1041 101.66C98.8981 100.736 101.494 101.88 101.648 104.366C101.736 105.73 101.67 107.358 99.7561 107.622C98.8761 107.754 97.1601 107.424 96.9841 107.71C96.4341 108.634 97.9961 109.008 99.0741 108.216ZM97.5121 103.904C96.7201 104.498 96.6321 105.686 97.4901 105.686C99.3601 105.686 98.8761 102.848 97.5121 103.904ZM108.354 106.478C109.872 106.676 111.038 107.6 111.038 109.272C111.038 111.868 106.858 111.978 106.858 111.978C105.956 111.956 103.404 111.978 102.04 112.022C101.754 112.022 101.534 111.758 101.6 111.494C101.754 111.01 101.908 110.526 102.106 110.042C102.26 109.734 102.392 109.426 102.524 109.096C102.612 108.876 102.876 108.788 103.118 108.876C103.954 109.206 105.912 109.448 106.572 109.338C106.88 109.294 107.166 109.206 107.452 109.096C107.958 108.942 108.09 108.37 107.738 108.018C107.474 107.754 105.186 107.82 104.79 107.82C104.702 107.82 104.394 107.666 104.13 107.512C103.888 107.38 103.844 107.05 104.064 106.874C104.834 106.28 106 105.686 106.484 105.4C106.022 105.334 103.734 105.312 103.272 105.334C103.118 105.334 103.008 105.29 102.964 105.136C102.876 104.85 102.942 102.87 102.964 102.54C102.986 102.188 102.986 102.078 103.228 102.078C104.46 101.99 106.748 101.968 107.98 102.078C108.552 102.122 109.278 102.122 109.652 102.518C109.982 102.87 110.07 104.52 109.894 104.96C109.608 105.686 108.354 106.478 108.354 106.478ZM122.165 104.982C122.407 107.27 122.121 110.922 117.743 111.626C116.643 111.802 115.477 111.648 114.421 111.296C113.827 111.098 113.255 110.856 112.793 110.438C111.803 109.536 111.231 108.106 111.231 106.808C111.187 105.202 111.803 103.794 113.101 102.518C113.739 101.88 114.641 101.462 115.543 101.264C118.271 100.582 121.835 101.99 122.165 104.982ZM116.687 108.15C118.447 107.996 119.129 106.148 118.161 104.982C117.809 104.564 117.127 104.366 116.577 104.476C114.003 104.938 113.871 108.392 116.687 108.15ZM133.204 111.384C133.49 111.758 132.5 111.934 131.422 111.912C127.198 112.858 129.728 106.676 129.31 105.246C128.936 103.288 126.824 104.586 126.648 106.038C126.538 107.116 126.868 109.844 126.67 111.164C126.868 112.044 124.47 111.406 123.304 111.538C122.05 111.56 123.304 103.442 123.15 102.254C123.194 101.704 123.128 101.352 123.612 101.374C124.426 101.55 126.582 101.132 127.022 101.682C127.088 101.99 126.978 102.188 126.978 102.54C127.462 102.144 128.804 101.484 129.508 101.418C135.47 100.934 131.18 108.546 133.204 111.384ZM142.028 104.74C141.984 106.852 142.138 109.338 142.468 110.944C142.512 111.098 142.358 111.208 142.204 111.23C140.4 111.648 137.87 111.736 136.638 111.692C134.856 111.626 133.492 110.746 133.558 108.634C133.624 107.006 134.68 105.972 136.264 105.642C137.958 105.29 138.772 103.684 136.506 104.036C135.934 104.124 135.384 104.366 134.856 104.498C134.592 104.586 134.504 104.52 134.46 104.212C134.438 103.992 134.284 102.826 134.262 102.584C134.218 102.32 134.24 102.166 134.46 102.078C137.21 100.802 142.072 100.362 142.028 104.74ZM137.914 108.964C138.772 108.854 138.706 107.16 138.024 107.204C137.056 107.248 136.572 109.184 137.914 108.964ZM151.158 110.174C151.224 110.372 150.85 110.526 150.674 110.636C150.476 110.746 150.3 110.878 150.08 110.966C143.964 114.002 141.28 106.918 143.678 102.848C144.14 102.078 145.064 101.396 145.988 101.11C146.736 100.912 147.528 100.956 148.298 101C148.518 101 149.178 101.044 149.354 101.11C149.662 101.242 149.596 101.308 149.53 101.616C149.442 101.924 149.09 103.464 149.09 103.772C149.068 104.036 149.024 104.058 148.738 104.058C148.232 104.036 147.704 103.992 147.22 104.146C145.834 104.63 145.768 108.106 147.484 108.634C148.276 108.876 149.156 108.37 149.596 108.26C149.926 108.172 149.992 108.37 150.19 108.634C150.322 108.832 151.114 109.932 151.158 110.174ZM161.214 111.714C161.236 112 161.214 112.308 159.696 112.308C156.66 112.308 157.716 111.912 157.54 109.602C157.144 109.624 156.066 109.646 155.296 109.668C155.34 109.954 155.296 110.966 155.34 111.274C155.362 111.956 155.802 112.594 154.636 112.594C153.844 112.594 151.754 112.88 151.732 112.132C151.666 109.646 151.16 105.686 151.204 103.156C151.27 102.386 153.338 102.87 153.712 102.738C153.91 102.716 154.504 102.628 154.658 102.782C154.856 104.432 154.812 105.62 154.988 107.204C155.626 107.204 156.638 107.182 157.276 107.182C157.232 105.092 156.814 103.772 157.254 102.826C157.606 102.694 159.234 102.738 159.608 102.738C160.598 102.562 160.752 102.826 160.642 103.706C160.774 106.852 160.884 108.766 161.214 111.714ZM172.49 104.982C172.732 107.27 172.446 110.922 168.068 111.626C166.968 111.802 165.802 111.648 164.746 111.296C164.152 111.098 163.58 110.856 163.118 110.438C162.128 109.536 161.556 108.106 161.556 106.808C161.512 105.202 162.128 103.794 163.426 102.518C164.064 101.88 164.966 101.462 165.868 101.264C168.596 100.582 172.16 101.99 172.49 104.982ZM167.012 108.15C168.772 107.996 169.454 106.148 168.486 104.982C168.134 104.564 167.452 104.366 166.902 104.476C164.328 104.938 164.196 108.392 167.012 108.15ZM181.242 110.174C181.308 110.372 180.934 110.526 180.758 110.636C180.56 110.746 180.384 110.878 180.164 110.966C174.048 114.002 171.364 106.918 173.762 102.848C174.224 102.078 175.148 101.396 176.072 101.11C176.82 100.912 177.612 100.956 178.382 101C178.602 101 179.262 101.044 179.438 101.11C179.746 101.242 179.68 101.308 179.614 101.616C179.526 101.924 179.174 103.464 179.174 103.772C179.152 104.036 179.108 104.058 178.822 104.058C178.316 104.036 177.788 103.992 177.304 104.146C175.918 104.63 175.852 108.106 177.568 108.634C178.36 108.876 179.24 108.37 179.68 108.26C180.01 108.172 180.076 108.37 180.274 108.634C180.406 108.832 181.198 109.932 181.242 110.174ZM188.033 102.166C188.385 102.122 188.363 102.562 188.341 102.892C188.341 103.354 188.319 103.816 188.319 104.278C188.319 104.366 188.297 104.476 188.253 104.542C188.165 104.63 188.011 104.652 187.879 104.652C187.395 104.652 186.405 104.608 185.921 104.586C185.877 105.906 185.943 110.922 185.987 112.22C185.987 112.484 185.745 112.638 185.481 112.638C184.689 112.66 183.875 112.638 183.083 112.638C182.841 112.638 182.511 112.638 182.357 112.44C182.313 112.352 182.291 112.242 182.291 112.132C182.291 110.856 182.247 105.862 182.225 104.586C182.071 104.586 180.773 104.608 180.619 104.608C180.553 104.586 180.487 104.564 180.443 104.52C180.377 104.454 180.355 104.366 180.333 104.278C180.289 104.036 180.289 102.848 180.333 102.606C180.333 102.496 180.355 102.43 180.421 102.364C180.619 102.1 187.593 102.21 188.033 102.166ZM192.313 103.86C196.295 103.046 198.473 105.576 197.351 108.898C196.405 111.67 193.787 112.198 189.651 111.956C189.255 111.934 188.705 111.824 188.771 111.34C188.969 109.932 189.035 108.502 188.969 107.094C188.947 106.456 188.661 103.2 188.529 102.584C188.507 102.452 188.397 102.078 188.463 101.99C188.595 101.814 189.123 101.726 189.321 101.704C189.651 101.66 191.235 101.506 191.565 101.528C191.697 101.528 191.829 101.638 191.895 101.726C192.093 102.078 192.269 103.486 192.313 103.86ZM192.423 109.184C193.699 109.778 194.447 108.458 194.249 107.248C194.139 106.5 193.061 106.236 192.445 106.654C192.467 107.314 192.423 108.524 192.423 109.184Z" fill="#E26029"/>
<path d="M90.509 104.366L90.7285 103.39L90.715 103.387L90.509 104.366ZM90.751 111.626L91.111 112.559L91.1346 112.55L91.1577 112.54L90.751 111.626ZM87.869 111.956L87.8975 110.956L87.8832 110.956H87.869V111.956ZM84.085 111.692L84.7334 110.931L84.7198 110.919L84.7057 110.908L84.085 111.692ZM83.777 109.756L82.7782 109.704L82.7777 109.718L83.777 109.756ZM83.887 103.442L84.8867 103.463L84.887 103.452V103.442H83.887ZM84.041 101.022L83.0762 100.759L83.0756 100.761L84.041 101.022ZM89.013 100.56L88.976 101.559L88.9945 101.56H89.013V100.56ZM90.817 100.758L90.2478 101.58L90.3062 101.621L90.3697 101.652L90.817 100.758ZM90.927 101.022L91.9244 100.951L91.9182 100.864L91.8971 100.779L90.927 101.022ZM90.861 103.332L89.8635 103.261L89.861 103.296V103.332H90.861ZM89.893 103.486L90.0034 102.492L89.9956 102.491L89.9878 102.491L89.893 103.486ZM87.495 103.574L87.8889 104.493L87.9159 104.482L87.9422 104.468L87.495 103.574ZM87.363 104.388L86.3659 104.311L86.2794 105.436L87.4064 105.387L87.363 104.388ZM88.485 109.206L88.4124 108.209L88.4097 108.209L88.485 109.206ZM89.563 106.984L90.2584 106.265L90.2317 106.24L90.2031 106.216L89.563 106.984ZM87.297 106.984L87.1326 105.998L86.297 106.137V106.984H87.297ZM87.297 108.986L88.2944 108.915L88.293 108.895L88.2908 108.876L87.297 108.986ZM90.509 104.366L90.2895 105.342C91.5099 105.616 92.1378 106.599 92.1546 107.771C92.1717 108.97 91.5313 110.184 90.3442 110.712L90.751 111.626L91.1577 112.54C93.1826 111.638 94.1812 109.618 94.1544 107.742C94.1271 105.84 93.028 103.908 90.7285 103.39L90.509 104.366ZM90.751 111.626L90.3909 110.693C89.3657 111.089 88.7398 110.98 87.8975 110.956L87.869 111.956L87.8404 112.956C88.5382 112.976 89.6282 113.131 91.111 112.559L90.751 111.626ZM87.869 111.956V110.956C87.6374 110.956 87.3024 110.973 86.9752 110.987C86.6309 111.002 86.2585 111.015 85.898 111.014C85.5325 111.012 85.2106 110.996 84.9626 110.958C84.6639 110.913 84.6524 110.862 84.7334 110.931L84.085 111.692L83.4365 112.453C83.8146 112.775 84.3228 112.884 84.6621 112.935C85.0521 112.995 85.4864 113.012 85.8909 113.014C86.3004 113.015 86.7117 113 87.0605 112.985C87.4262 112.969 87.6935 112.956 87.869 112.956V111.956ZM84.085 111.692L84.7057 110.908C84.7985 110.981 84.7348 111.028 84.724 110.744C84.7194 110.622 84.726 110.483 84.7387 110.317C84.7494 110.176 84.7698 109.962 84.7762 109.794L83.777 109.756L82.7777 109.718C82.7732 109.836 82.7605 109.955 82.7445 110.165C82.7303 110.35 82.7163 110.581 82.7254 110.82C82.7421 111.256 82.8434 111.985 83.4643 112.476L84.085 111.692ZM83.777 109.756L84.7756 109.808C84.8863 107.682 84.844 105.512 84.8867 103.463L83.887 103.442L82.8872 103.421C82.8419 105.596 82.8876 107.606 82.7783 109.704L83.777 109.756ZM83.887 103.442H84.887C84.887 102.563 84.8315 101.93 85.0063 101.283L84.041 101.022L83.0756 100.761C82.8104 101.742 82.887 102.781 82.887 103.442H83.887ZM84.041 101.022L85.0057 101.285C84.9557 101.469 84.8408 101.552 84.8239 101.563C84.8162 101.568 84.8596 101.54 84.9945 101.508C85.2638 101.444 85.6714 101.411 86.1805 101.411C87.2529 101.411 88.2379 101.532 88.976 101.559L89.013 100.56L89.05 99.5607C88.6001 99.544 87.231 99.4115 86.1805 99.4115C85.628 99.4115 85.0319 99.4427 84.5298 99.5626C84.279 99.6225 83.9948 99.7174 83.7394 99.8822C83.4749 100.053 83.1922 100.333 83.0762 100.759L84.041 101.022ZM89.013 100.56V101.56C89.19 101.56 89.5391 101.56 89.8732 101.583C90.0417 101.594 90.184 101.609 90.2872 101.628C90.3386 101.637 90.3643 101.644 90.3703 101.646C90.3861 101.651 90.329 101.636 90.2478 101.58L90.817 100.758L91.3862 99.9358C91.1201 99.7516 90.7995 99.6878 90.6407 99.6593C90.4338 99.6221 90.209 99.6005 90.0062 99.587C89.5979 99.5597 89.1879 99.56 89.013 99.56V100.56ZM90.817 100.758L90.3697 101.652C90.0245 101.48 89.9415 101.171 89.9332 101.141C89.9256 101.114 89.9233 101.097 89.928 101.123C89.9292 101.13 89.9405 101.199 89.9568 101.265L90.927 101.022L91.8971 100.779C91.9025 100.801 91.9054 100.82 91.8978 100.777C91.8935 100.752 91.8815 100.683 91.8602 100.606C91.8244 100.477 91.6974 100.08 91.2642 99.8636L90.817 100.758ZM90.927 101.022L89.9295 101.093C89.9293 101.09 89.9299 101.098 89.9304 101.12C89.9309 101.14 89.9312 101.167 89.9314 101.2C89.9316 101.268 89.9308 101.353 89.9292 101.453C89.9258 101.652 89.9192 101.897 89.911 102.144C89.8944 102.647 89.8729 103.129 89.8635 103.261L90.861 103.332L91.8584 103.403C91.871 103.227 91.8935 102.708 91.9099 102.21C91.9255 101.739 91.9401 101.171 91.9244 100.951L90.927 101.022ZM90.861 103.332H89.861C89.861 103.251 89.8768 103.121 89.9525 102.979C90.0311 102.831 90.1446 102.725 90.256 102.659C90.3583 102.599 90.4453 102.579 90.4845 102.572C90.5252 102.565 90.547 102.566 90.5397 102.566C90.5191 102.566 90.4704 102.561 90.3636 102.545C90.2842 102.533 90.1304 102.506 90.0034 102.492L89.893 103.486L89.7825 104.48C89.8536 104.488 89.9197 104.5 90.059 104.521C90.1708 104.539 90.3394 104.563 90.5112 104.566C90.6568 104.568 90.971 104.56 91.2748 104.381C91.677 104.142 91.861 103.732 91.861 103.332H90.861ZM89.893 103.486L89.9878 102.491C89.7213 102.465 89.1872 102.436 88.6636 102.439C88.4013 102.441 88.1224 102.45 87.8711 102.476C87.6638 102.497 87.3271 102.54 87.0478 102.68L87.495 103.574L87.9422 104.468C87.8608 104.509 87.8651 104.486 88.0724 104.465C88.2357 104.449 88.4448 104.441 88.6748 104.439C89.1358 104.437 89.6027 104.463 89.7982 104.481L89.893 103.486ZM87.495 103.574L87.101 102.655C86.7938 102.787 86.5535 103.023 86.4246 103.332C86.3139 103.597 86.316 103.845 86.3232 103.978C86.3302 104.106 86.3532 104.253 86.3584 104.292C86.3687 104.368 86.3626 104.355 86.3659 104.311L87.363 104.388L88.36 104.465C88.3744 104.278 88.3517 104.108 88.3407 104.026C88.3375 104.002 88.3342 103.978 88.3316 103.96C88.3288 103.941 88.3267 103.925 88.3249 103.911C88.3231 103.897 88.322 103.887 88.3212 103.88C88.3208 103.876 88.3206 103.873 88.3204 103.872C88.3203 103.87 88.3202 103.869 88.3202 103.869C88.3202 103.869 88.3203 103.87 88.3203 103.872C88.3204 103.874 88.3204 103.878 88.3204 103.882C88.3202 103.891 88.3197 103.905 88.3176 103.924C88.3136 103.96 88.3026 104.024 88.2704 104.102C88.2367 104.183 88.1838 104.268 88.1076 104.344C88.0322 104.419 87.9533 104.466 87.8889 104.493L87.495 103.574ZM87.363 104.388L87.4064 105.387C87.5482 105.381 87.7778 105.364 88.0168 105.348C88.2673 105.332 88.556 105.314 88.8522 105.302C89.4823 105.277 90.0235 105.286 90.303 105.345L90.509 104.366L90.715 103.387C90.1585 103.27 89.3797 103.279 88.7722 103.304C88.4496 103.316 88.1403 103.336 87.8841 103.353C87.6164 103.371 87.4308 103.384 87.3195 103.389L87.363 104.388ZM88.485 109.206L88.5575 110.203C89.5874 110.128 90.3198 109.459 90.6486 108.713C90.9623 108.001 90.9926 106.976 90.2584 106.265L89.563 106.984L88.8675 107.703C88.848 107.684 88.8547 107.673 88.8583 107.706C88.8627 107.746 88.857 107.819 88.8183 107.906C88.7401 108.084 88.5925 108.196 88.4124 108.209L88.485 109.206ZM89.563 106.984L90.2031 106.216C89.5194 105.646 88.6258 105.703 88.1426 105.771C87.8623 105.81 87.6072 105.871 87.418 105.92C87.3269 105.944 87.2369 105.969 87.1839 105.983C87.1091 106.003 87.1085 106.002 87.1326 105.998L87.297 106.984L87.4614 107.97C87.5514 107.955 87.6505 107.929 87.7022 107.915C87.7757 107.895 87.8391 107.877 87.9212 107.856C88.0785 107.815 88.2496 107.776 88.4203 107.752C88.5953 107.727 88.7359 107.724 88.8375 107.737C88.9384 107.751 88.947 107.772 88.9228 107.752L89.563 106.984ZM87.297 106.984H86.297C86.297 107.081 86.2916 107.512 86.2887 107.979C86.2874 108.206 86.2866 108.436 86.2877 108.623C86.2886 108.779 86.2903 108.981 86.3031 109.096L87.297 108.986L88.2908 108.876C88.2926 108.892 88.2888 108.819 88.2877 108.612C88.2867 108.436 88.2873 108.215 88.2887 107.991C88.2914 107.556 88.297 107.085 88.297 106.984H87.297ZM87.297 108.986L86.2995 109.057C86.3275 109.449 86.545 109.718 86.7313 109.866C86.9018 110.002 87.0804 110.069 87.1941 110.105C87.426 110.177 87.6723 110.2 87.8432 110.21C88.0297 110.22 88.2076 110.218 88.3338 110.214C88.3982 110.212 88.4523 110.21 88.4913 110.208C88.5108 110.206 88.5267 110.205 88.5383 110.205C88.5442 110.204 88.549 110.204 88.5526 110.204C88.5545 110.204 88.556 110.203 88.5573 110.203C88.5579 110.203 88.5585 110.203 88.559 110.203C88.5592 110.203 88.5594 110.203 88.5597 110.203C88.5598 110.203 88.5599 110.203 88.56 110.203C88.5601 110.203 88.5602 110.203 88.485 109.206C88.4097 108.209 88.4098 108.209 88.41 108.209C88.41 108.209 88.4101 108.209 88.4102 108.209C88.4103 108.209 88.4104 108.209 88.4105 108.209C88.4107 108.209 88.4109 108.209 88.4109 108.209C88.4111 108.209 88.411 108.209 88.4106 108.209C88.4099 108.209 88.4081 108.209 88.4054 108.209C88.4 108.209 88.3908 108.21 88.3784 108.211C88.3535 108.212 88.3163 108.214 88.2711 108.215C88.178 108.218 88.0629 108.219 87.9552 108.213C87.9018 108.21 87.8576 108.206 87.8235 108.201C87.7867 108.196 87.7781 108.192 87.7896 108.196C87.7965 108.198 87.8167 108.204 87.8456 108.218C87.8735 108.232 87.9216 108.257 87.9773 108.302C88.0335 108.346 88.1078 108.418 88.1718 108.525C88.2386 108.637 88.2841 108.77 88.2944 108.915L87.297 108.986ZM99.0741 108.216L99.6662 109.022L99.6773 109.014L99.6881 109.005L99.0741 108.216ZM100.218 108.018L101.045 107.456L101.04 107.448L101.035 107.441L100.218 108.018ZM100.944 110.504L101.688 111.172L101.693 111.167L100.944 110.504ZM93.5741 108.546L94.5488 108.322L94.5471 108.315L94.5452 108.307L93.5741 108.546ZM96.1041 101.66L96.418 102.609L96.4181 102.609L96.1041 101.66ZM101.648 104.366L100.65 104.428L100.65 104.43L101.648 104.366ZM99.7561 107.622L99.6195 106.631L99.6078 106.633L99.7561 107.622ZM96.9841 107.71L96.1325 107.186L96.1286 107.192L96.1248 107.199L96.9841 107.71ZM97.5121 103.904L98.1121 104.704L98.1183 104.699L98.1243 104.695L97.5121 103.904ZM99.0741 108.216L99.6881 109.005C99.6982 108.997 99.7387 108.968 99.7968 108.935C99.8553 108.901 99.9066 108.878 99.941 108.867C99.9864 108.851 99.9472 108.874 99.8508 108.864C99.795 108.858 99.7134 108.84 99.624 108.792C99.5312 108.741 99.4553 108.671 99.4012 108.595L100.218 108.018L101.035 107.441C100.776 107.074 100.402 106.911 100.061 106.875C99.7562 106.843 99.4847 106.91 99.3017 106.971C98.9349 107.095 98.616 107.305 98.4602 107.427L99.0741 108.216ZM100.218 108.018L99.3912 108.58C99.5703 108.844 99.8295 109.252 99.9864 109.633C100.066 109.826 100.095 109.955 100.099 110.021C100.104 110.084 100.08 109.971 100.195 109.841L100.944 110.504L101.693 111.167C102.061 110.751 102.12 110.253 102.094 109.882C102.069 109.514 101.955 109.16 101.836 108.872C101.597 108.291 101.24 107.742 101.045 107.456L100.218 108.018ZM100.944 110.504L100.2 109.836C99.4688 110.651 98.2328 110.901 96.9892 110.558C95.7393 110.212 94.7847 109.35 94.5488 108.322L93.5741 108.546L92.5995 108.77C93.0456 110.712 94.72 112.006 96.4566 112.485C98.1994 112.967 100.307 112.711 101.688 111.172L100.944 110.504ZM93.5741 108.546L94.5452 108.307C94.2603 107.148 94.2403 105.829 94.5608 104.742C94.8765 103.672 95.4844 102.918 96.418 102.609L96.1041 101.66L95.7903 100.711C94.0619 101.282 93.0858 102.673 92.6425 104.177C92.204 105.664 92.25 107.348 92.603 108.785L93.5741 108.546ZM96.1041 101.66L96.4181 102.609C97.6224 102.211 98.6978 102.288 99.4386 102.638C100.146 102.973 100.597 103.57 100.65 104.428L101.648 104.366L102.646 104.304C102.545 102.676 101.621 101.458 100.294 100.83C98.9995 100.218 97.3798 100.185 95.7902 100.711L96.1041 101.66ZM101.648 104.366L100.65 104.43C100.694 105.111 100.677 105.654 100.525 106.034C100.458 106.202 100.372 106.317 100.261 106.402C100.149 106.488 99.9585 106.585 99.6195 106.631L99.7561 107.622L99.8928 108.613C100.511 108.527 101.046 108.322 101.482 107.986C101.92 107.649 102.203 107.222 102.381 106.779C102.718 105.938 102.69 104.985 102.646 104.302L101.648 104.366ZM99.7561 107.622L99.6078 106.633C99.2974 106.68 98.7907 106.644 98.16 106.61C97.8853 106.595 97.5737 106.581 97.311 106.596C97.182 106.603 97.013 106.62 96.8444 106.668C96.7147 106.704 96.3576 106.82 96.1325 107.186L96.9841 107.71L97.8358 108.234C97.7396 108.39 97.62 108.479 97.545 108.523C97.4708 108.567 97.412 108.585 97.391 108.591C97.3533 108.602 97.3541 108.597 97.4246 108.593C97.5606 108.585 97.7659 108.591 98.0523 108.607C98.5435 108.633 99.3349 108.696 99.9045 108.611L99.7561 107.622ZM96.9841 107.71L96.1248 107.199C95.8611 107.642 95.7455 108.23 96.0557 108.781C96.3305 109.269 96.8117 109.489 97.1844 109.579C97.9443 109.762 98.9042 109.582 99.6662 109.022L99.0741 108.216L98.4821 107.41C98.1661 107.642 97.8059 107.671 97.6529 107.634C97.569 107.614 97.6955 107.617 97.7984 107.8C97.8552 107.9 97.8764 108.013 97.8686 108.11C97.8615 108.198 97.834 108.237 97.8434 108.221L96.9841 107.71ZM97.5121 103.904L96.9121 103.104C96.295 103.567 95.9089 104.284 95.8831 104.981C95.8699 105.336 95.951 105.768 96.2504 106.129C96.5702 106.515 97.028 106.686 97.4901 106.686V105.686V104.686C97.4985 104.686 97.5435 104.688 97.6076 104.715C97.6744 104.744 97.739 104.791 97.7901 104.853C97.8894 104.973 97.8811 105.071 97.8817 105.055C97.8821 105.044 97.8892 104.99 97.932 104.912C97.9728 104.837 98.034 104.763 98.1121 104.704L97.5121 103.904ZM97.4901 105.686V106.686C98.2366 106.686 98.8579 106.389 99.2603 105.877C99.6383 105.397 99.7598 104.808 99.7089 104.299C99.6609 103.819 99.4287 103.2 98.8392 102.866C98.1594 102.482 97.4325 102.701 96.9 103.113L97.5121 103.904L98.1243 104.695C98.2022 104.634 98.209 104.653 98.1446 104.664C98.0664 104.677 97.9569 104.665 97.855 104.607C97.7644 104.556 97.727 104.496 97.7182 104.48C97.7094 104.463 97.7159 104.469 97.7188 104.499C97.7258 104.568 97.7028 104.622 97.6883 104.641C97.6846 104.646 97.6794 104.651 97.6636 104.659C97.6469 104.666 97.5957 104.686 97.4901 104.686V105.686ZM108.354 106.478L107.82 105.633L105.479 107.111L108.225 107.47L108.354 106.478ZM106.858 111.978L106.834 112.978L106.859 112.978L106.885 112.978L106.858 111.978ZM102.04 112.022V113.022H102.056L102.073 113.021L102.04 112.022ZM101.6 111.494L100.647 111.191L100.638 111.221L100.63 111.251L101.6 111.494ZM102.106 110.042L101.212 109.595L101.195 109.628L101.181 109.663L102.106 110.042ZM102.524 109.096L103.453 109.467L102.524 109.096ZM103.118 108.876L103.485 107.946L103.473 107.941L103.46 107.936L103.118 108.876ZM106.572 109.338L106.431 108.348L106.419 108.35L106.408 108.352L106.572 109.338ZM107.452 109.096L107.161 108.139L107.127 108.15L107.093 108.163L107.452 109.096ZM104.13 107.512L104.634 106.648L104.622 106.641L104.609 106.634L104.13 107.512ZM104.064 106.874L103.453 106.082L103.447 106.088L103.44 106.093L104.064 106.874ZM106.484 105.4L106.993 106.261L109.444 104.813L106.626 104.41L106.484 105.4ZM103.272 105.334V106.334H103.296L103.32 106.333L103.272 105.334ZM102.964 105.136L103.926 104.861L103.923 104.852L103.92 104.842L102.964 105.136ZM102.964 102.54L103.962 102.607L103.962 102.602L102.964 102.54ZM103.228 102.078V103.078H103.264L103.3 103.075L103.228 102.078ZM107.98 102.078L107.891 103.074L107.904 103.075L107.98 102.078ZM109.652 102.518L110.382 101.834L110.379 101.831L109.652 102.518ZM109.894 104.96L108.966 104.589L108.964 104.593L109.894 104.96ZM108.354 106.478L108.225 107.47C108.827 107.548 109.28 107.761 109.571 108.042C109.844 108.305 110.038 108.689 110.038 109.272H111.038H112.038C112.038 108.183 111.65 107.269 110.96 106.603C110.288 105.954 109.399 105.606 108.484 105.486L108.354 106.478ZM111.038 109.272H110.038C110.038 109.879 109.588 110.328 108.629 110.651C108.189 110.799 107.735 110.883 107.383 110.929C107.209 110.951 107.065 110.964 106.967 110.971C106.919 110.974 106.882 110.976 106.858 110.977C106.847 110.978 106.838 110.978 106.834 110.978C106.832 110.978 106.83 110.978 106.83 110.978C106.83 110.978 106.83 110.978 106.83 110.978C106.83 110.978 106.831 110.978 106.831 110.978C106.831 110.978 106.831 110.978 106.831 110.978C106.832 110.978 106.832 110.978 106.858 111.978C106.885 112.978 106.885 112.978 106.885 112.978C106.885 112.978 106.886 112.978 106.886 112.978C106.887 112.978 106.887 112.978 106.888 112.978C106.889 112.978 106.891 112.977 106.893 112.977C106.896 112.977 106.901 112.977 106.907 112.977C106.918 112.977 106.933 112.976 106.952 112.975C106.99 112.973 107.043 112.97 107.108 112.966C107.239 112.956 107.422 112.94 107.64 112.912C108.072 112.856 108.663 112.75 109.268 112.546C110.398 112.165 112.038 111.261 112.038 109.272H111.038ZM106.858 111.978L106.883 110.978C105.956 110.956 103.384 110.978 102.008 111.023L102.04 112.022L102.073 113.021C103.425 112.978 105.957 112.956 106.834 112.978L106.858 111.978ZM102.04 112.022V111.022C102.211 111.022 102.36 111.101 102.457 111.217C102.553 111.333 102.624 111.523 102.57 111.737L101.6 111.494L100.63 111.251C100.39 112.213 101.174 113.022 102.04 113.022V112.022ZM101.6 111.494L102.553 111.797C102.709 111.308 102.851 110.862 103.032 110.421L102.106 110.042L101.181 109.663C100.965 110.19 100.8 110.712 100.647 111.191L101.6 111.494ZM102.106 110.042L103.001 110.489C103.172 110.147 103.315 109.811 103.453 109.467L102.524 109.096L101.596 108.725C101.469 109.041 101.349 109.321 101.212 109.595L102.106 110.042ZM102.524 109.096L103.453 109.467C103.379 109.651 103.233 109.764 103.101 109.812C102.977 109.857 102.862 109.847 102.777 109.816L103.118 108.876L103.46 107.936C102.848 107.714 101.935 107.877 101.596 108.725L102.524 109.096ZM103.118 108.876L102.751 109.806C103.287 110.018 104.085 110.173 104.782 110.264C105.459 110.352 106.246 110.406 106.737 110.324L106.572 109.338L106.408 108.352C106.239 108.38 105.717 108.368 105.04 108.28C104.384 108.195 103.785 108.064 103.485 107.946L103.118 108.876ZM106.572 109.338L106.714 110.328C107.122 110.27 107.484 110.155 107.811 110.029L107.452 109.096L107.093 108.163C106.848 108.257 106.639 108.318 106.431 108.348L106.572 109.338ZM107.452 109.096L107.743 110.053C108.964 109.681 109.337 108.202 108.445 107.311L107.738 108.018L107.031 108.725C106.96 108.654 106.913 108.523 106.948 108.386C106.984 108.243 107.089 108.161 107.161 108.139L107.452 109.096ZM107.738 108.018L108.445 107.311C108.207 107.073 107.906 106.993 107.808 106.967C107.655 106.927 107.491 106.901 107.341 106.883C107.037 106.846 106.677 106.829 106.339 106.82C105.671 106.803 104.948 106.82 104.79 106.82V107.82V108.82C105.028 108.82 105.648 108.804 106.289 108.82C106.605 108.828 106.892 108.843 107.103 108.869C107.21 108.881 107.271 108.894 107.296 108.9C107.375 108.921 107.203 108.897 107.031 108.725L107.738 108.018ZM104.79 107.82V106.82C104.854 106.82 104.904 106.827 104.932 106.831C104.962 106.836 104.986 106.842 104.999 106.845C105.025 106.852 105.039 106.857 105.035 106.856C105.029 106.854 105.003 106.843 104.957 106.821C104.867 106.778 104.749 106.715 104.634 106.648L104.13 107.512L103.626 108.376C103.776 108.463 103.944 108.554 104.096 108.626C104.17 108.662 104.255 108.7 104.339 108.731C104.378 108.745 104.568 108.82 104.79 108.82V107.82ZM104.13 107.512L104.609 106.634C104.94 106.815 105.074 107.347 104.689 107.655L104.064 106.874L103.44 106.093C102.614 106.753 102.837 107.945 103.651 108.39L104.13 107.512ZM104.064 106.874L104.675 107.666C105.381 107.121 106.413 106.604 106.993 106.261L106.484 105.4L105.976 104.539C105.588 104.768 104.288 105.439 103.453 106.082L104.064 106.874ZM106.484 105.4L106.626 104.41C106.317 104.366 105.552 104.345 104.894 104.334C104.212 104.323 103.493 104.322 103.225 104.335L103.272 105.334L103.32 106.333C103.514 106.324 104.17 106.323 104.862 106.334C105.58 106.345 106.19 106.368 106.343 106.39L106.484 105.4ZM103.272 105.334V104.334C103.279 104.334 103.312 104.334 103.362 104.344C103.413 104.354 103.491 104.377 103.578 104.427C103.785 104.547 103.889 104.731 103.926 104.861L102.964 105.136L102.003 105.411C102.084 105.695 102.264 105.978 102.576 106.158C102.849 106.316 103.12 106.334 103.272 106.334V105.334ZM102.964 105.136L103.92 104.842C103.945 104.923 103.942 104.961 103.935 104.876C103.93 104.819 103.926 104.738 103.924 104.631C103.918 104.419 103.919 104.149 103.923 103.869C103.931 103.304 103.953 102.746 103.962 102.607L102.964 102.54L101.967 102.473C101.954 102.664 101.932 103.261 101.923 103.84C101.919 104.132 101.918 104.431 101.924 104.681C101.928 104.806 101.933 104.928 101.941 105.036C101.948 105.115 101.962 105.277 102.009 105.43L102.964 105.136ZM102.964 102.54L103.962 102.602C103.969 102.499 103.971 102.46 103.974 102.434C103.978 102.399 103.974 102.482 103.922 102.596C103.891 102.663 103.841 102.745 103.763 102.826C103.684 102.908 103.594 102.969 103.506 103.009C103.422 103.048 103.35 103.064 103.306 103.071C103.262 103.078 103.233 103.078 103.228 103.078V102.078V101.078C103.113 101.078 102.898 101.088 102.67 101.192C102.397 101.318 102.211 101.53 102.106 101.758C102.02 101.943 101.997 102.12 101.987 102.205C101.977 102.298 101.971 102.405 101.966 102.478L102.964 102.54ZM103.228 102.078L103.3 103.075C104.495 102.99 106.727 102.97 107.891 103.074L107.98 102.078L108.069 101.082C106.769 100.966 104.425 100.99 103.157 101.081L103.228 102.078ZM107.98 102.078L107.904 103.075C108.251 103.102 108.479 103.107 108.71 103.15C108.937 103.191 108.957 103.238 108.925 103.205L109.652 102.518L110.379 101.831C109.973 101.402 109.443 101.251 109.071 101.182C108.703 101.115 108.282 101.098 108.057 101.081L107.98 102.078ZM109.652 102.518L108.923 103.202C108.85 103.124 108.832 103.068 108.843 103.095C108.85 103.112 108.865 103.153 108.883 103.225C108.918 103.369 108.949 103.566 108.966 103.786C108.984 104.004 108.987 104.219 108.978 104.391C108.968 104.599 108.944 104.643 108.966 104.589L109.894 104.96L110.823 105.331C110.932 105.057 110.964 104.729 110.976 104.493C110.99 104.222 110.983 103.919 110.96 103.626C110.936 103.334 110.894 103.025 110.825 102.747C110.77 102.524 110.656 102.127 110.382 101.834L109.652 102.518ZM109.894 104.96L108.964 104.593C108.954 104.618 108.909 104.701 108.788 104.837C108.674 104.964 108.531 105.096 108.38 105.221C108.231 105.344 108.087 105.449 107.98 105.524C107.928 105.561 107.885 105.59 107.857 105.609C107.843 105.618 107.832 105.625 107.826 105.629C107.823 105.631 107.821 105.632 107.82 105.633C107.819 105.633 107.819 105.633 107.819 105.633C107.819 105.633 107.819 105.633 107.82 105.633C107.82 105.633 107.82 105.633 107.82 105.633C107.82 105.633 107.82 105.633 107.82 105.633C107.82 105.633 107.82 105.633 108.354 106.478C108.888 107.323 108.888 107.323 108.889 107.323C108.889 107.323 108.889 107.323 108.889 107.323C108.889 107.323 108.889 107.323 108.89 107.323C108.89 107.322 108.891 107.322 108.891 107.322C108.893 107.321 108.894 107.32 108.896 107.319C108.9 107.316 108.905 107.313 108.911 107.309C108.923 107.301 108.94 107.29 108.961 107.276C109.002 107.249 109.06 107.21 109.129 107.162C109.266 107.065 109.454 106.927 109.654 106.762C109.852 106.598 110.076 106.396 110.278 106.17C110.472 105.953 110.691 105.665 110.825 105.327L109.894 104.96ZM122.165 104.982L123.159 104.877L123.159 104.872L122.165 104.982ZM117.743 111.626L117.901 112.613L117.902 112.613L117.743 111.626ZM114.421 111.296L114.737 110.347L114.421 111.296ZM112.793 110.438L112.119 111.177L112.122 111.18L112.793 110.438ZM111.231 106.808H112.231V106.794L112.23 106.781L111.231 106.808ZM113.101 102.518L113.802 103.231L113.808 103.225L113.101 102.518ZM115.543 101.264L115.757 102.241L115.771 102.238L115.785 102.234L115.543 101.264ZM116.687 108.15L116.772 109.146L116.774 109.146L116.687 108.15ZM118.161 104.982L118.93 104.343L118.926 104.338L118.161 104.982ZM116.577 104.476L116.753 105.46L116.763 105.459L116.773 105.457L116.577 104.476ZM122.165 104.982L121.17 105.087C121.284 106.164 121.255 107.436 120.777 108.482C120.333 109.453 119.457 110.338 117.584 110.639L117.743 111.626L117.902 112.613C120.407 112.21 121.863 110.917 122.596 109.314C123.294 107.786 123.287 106.088 123.159 104.877L122.165 104.982ZM117.743 111.626L117.585 110.639C116.677 110.784 115.676 110.66 114.737 110.347L114.421 111.296L114.105 112.245C115.278 112.636 116.609 112.82 117.901 112.613L117.743 111.626ZM114.421 111.296L114.737 110.347C114.177 110.161 113.768 109.971 113.464 109.696L112.793 110.438L112.122 111.18C112.742 111.741 113.476 112.035 114.105 112.245L114.421 111.296ZM112.793 110.438L113.466 109.699C112.702 109.003 112.231 107.85 112.231 106.808H111.231H110.231C110.231 108.362 110.904 110.069 112.119 111.177L112.793 110.438ZM111.231 106.808L112.23 106.781C112.195 105.492 112.672 104.342 113.802 103.231L113.101 102.518L112.4 101.805C110.934 103.246 110.178 104.912 110.231 106.835L111.231 106.808ZM113.101 102.518L113.808 103.225C114.277 102.756 114.988 102.41 115.757 102.241L115.543 101.264L115.328 100.287C114.293 100.514 113.201 101.004 112.394 101.811L113.101 102.518ZM115.543 101.264L115.785 102.234C116.912 101.952 118.24 102.103 119.303 102.639C120.353 103.167 121.052 104.012 121.171 105.092L122.165 104.982L123.159 104.872C122.948 102.96 121.699 101.605 120.203 100.852C118.72 100.106 116.901 99.8936 115.3 100.294L115.543 101.264ZM116.687 108.15L116.774 109.146C119.307 108.925 120.433 106.153 118.93 104.343L118.161 104.982L117.391 105.621C117.825 106.143 117.586 107.067 116.6 107.154L116.687 108.15ZM118.161 104.982L118.926 104.338C118.304 103.6 117.233 103.325 116.381 103.495L116.577 104.476L116.773 105.457C117.021 105.407 117.313 105.528 117.396 105.626L118.161 104.982ZM116.577 104.476L116.4 103.492C114.657 103.805 113.615 105.181 113.611 106.574C113.608 107.273 113.874 107.988 114.465 108.499C115.058 109.012 115.866 109.224 116.772 109.146L116.687 108.15L116.601 107.154C116.1 107.197 115.868 107.068 115.774 106.987C115.678 106.904 115.61 106.772 115.611 106.58C115.612 106.191 115.923 105.609 116.753 105.46L116.577 104.476ZM133.204 111.384L132.39 111.965L132.399 111.978L132.41 111.991L133.204 111.384ZM131.422 111.912L131.442 110.912L131.321 110.91L131.203 110.936L131.422 111.912ZM129.31 105.246L128.328 105.434L128.337 105.481L128.35 105.527L129.31 105.246ZM126.648 106.038L125.655 105.918L125.654 105.927L125.653 105.936L126.648 106.038ZM126.67 111.164L125.681 111.016L125.653 111.201L125.694 111.384L126.67 111.164ZM123.304 111.538L123.321 112.538L123.369 112.537L123.416 112.532L123.304 111.538ZM123.15 102.254L122.153 102.174L122.145 102.279L122.158 102.383L123.15 102.254ZM123.612 101.374L123.823 100.397L123.741 100.379L123.657 100.375L123.612 101.374ZM127.022 101.682L128 101.472L127.95 101.242L127.803 101.057L127.022 101.682ZM126.978 102.54H125.978V104.65L127.611 103.314L126.978 102.54ZM129.508 101.418L129.427 100.421L129.415 100.422L129.508 101.418ZM133.204 111.384L132.41 111.991C132.354 111.918 132.243 111.737 132.255 111.471C132.267 111.195 132.402 111.007 132.494 110.917C132.538 110.873 132.577 110.846 132.6 110.832C132.623 110.817 132.638 110.81 132.642 110.808C132.646 110.806 132.628 110.815 132.578 110.827C132.358 110.883 131.943 110.922 131.442 110.912L131.422 111.912L131.402 112.912C131.979 112.924 132.598 112.886 133.071 112.766C133.27 112.715 133.629 112.608 133.901 112.338C134.062 112.179 134.237 111.916 134.253 111.559C134.268 111.212 134.126 110.943 133.998 110.777L133.204 111.384ZM131.422 111.912L131.203 110.936C130.345 111.128 130.189 110.897 130.159 110.858C130.027 110.688 129.913 110.278 129.938 109.503C129.962 108.771 130.095 107.967 130.212 107.169C130.268 106.786 130.321 106.397 130.345 106.05C130.367 105.73 130.375 105.325 130.27 104.965L129.31 105.246L128.35 105.527C128.349 105.524 128.37 105.625 128.35 105.913C128.332 106.175 128.289 106.495 128.233 106.879C128.125 107.612 127.968 108.563 127.939 109.437C127.912 110.268 127.983 111.315 128.578 112.083C129.275 112.982 130.387 113.169 131.64 112.888L131.422 111.912ZM129.31 105.246L130.292 105.058C130.165 104.392 129.842 103.773 129.22 103.451C128.61 103.136 127.971 103.242 127.504 103.447C126.61 103.838 125.789 104.811 125.655 105.918L126.648 106.038L127.641 106.158C127.659 106.009 127.735 105.821 127.876 105.638C128.019 105.455 128.183 105.333 128.306 105.279C128.435 105.223 128.405 105.281 128.302 105.228C128.187 105.168 128.268 105.121 128.328 105.434L129.31 105.246ZM126.648 106.038L125.653 105.936C125.588 106.571 125.651 107.631 125.693 108.555C125.738 109.567 125.763 110.472 125.681 111.016L126.67 111.164L127.659 111.312C127.775 110.536 127.734 109.417 127.691 108.465C127.644 107.426 127.597 106.583 127.643 106.14L126.648 106.038ZM126.67 111.164L125.694 111.384C125.671 111.282 125.663 111.056 125.822 110.838C125.889 110.746 125.962 110.691 126.012 110.66C126.06 110.631 126.094 110.621 126.098 110.619C126.102 110.618 126.06 110.63 125.947 110.636C125.841 110.641 125.708 110.64 125.544 110.633C125.197 110.617 124.849 110.581 124.421 110.55C124.036 110.523 123.584 110.5 123.191 110.544L123.304 111.538L123.416 112.532C123.607 112.51 123.892 112.518 124.278 112.545C124.621 112.57 125.079 112.613 125.453 112.63C125.807 112.647 126.285 112.654 126.685 112.531C126.893 112.467 127.209 112.33 127.438 112.017C127.694 111.665 127.718 111.266 127.646 110.944L126.67 111.164ZM123.304 111.538L123.286 110.538C123.806 110.529 123.932 110.977 123.876 110.833C123.844 110.75 123.798 110.547 123.769 110.185C123.714 109.485 123.744 108.496 123.812 107.413C123.88 106.338 123.982 105.231 124.059 104.291C124.097 103.826 124.13 103.398 124.148 103.046C124.165 102.72 124.174 102.376 124.142 102.125L123.15 102.254L122.158 102.383C122.158 102.382 122.159 102.385 122.159 102.394C122.16 102.402 122.161 102.413 122.161 102.429C122.163 102.459 122.163 102.5 122.163 102.551C122.163 102.654 122.159 102.785 122.151 102.944C122.134 103.263 122.104 103.664 122.066 104.127C121.991 105.042 121.886 106.186 121.816 107.287C121.747 108.379 121.708 109.489 121.776 110.342C121.808 110.757 121.871 111.194 122.011 111.555C122.127 111.856 122.488 112.552 123.321 112.538L123.304 111.538ZM123.15 102.254L124.147 102.334C124.153 102.252 124.158 102.175 124.161 102.111C124.165 102.043 124.167 101.995 124.17 101.95C124.177 101.846 124.183 101.857 124.168 101.906C124.144 101.98 124.065 102.154 123.866 102.277C123.691 102.384 123.549 102.372 123.566 102.373L123.612 101.374L123.657 100.375C123.432 100.365 123.118 100.388 122.818 100.573C122.493 100.773 122.337 101.065 122.264 101.293C122.199 101.496 122.183 101.697 122.175 101.813C122.162 101.996 122.166 102.018 122.153 102.174L123.15 102.254ZM123.612 101.374L123.401 102.351C123.731 102.423 124.126 102.425 124.444 102.419C124.617 102.416 124.796 102.409 124.968 102.403C125.144 102.397 125.312 102.391 125.477 102.388C125.816 102.381 126.082 102.388 126.272 102.416C126.525 102.453 126.39 102.493 126.241 102.307L127.022 101.682L127.803 101.057C127.434 100.596 126.864 100.482 126.564 100.437C126.2 100.384 125.794 100.381 125.437 100.388C125.254 100.392 125.069 100.398 124.897 100.404C124.721 100.411 124.559 100.416 124.408 100.419C124.08 100.425 123.9 100.413 123.823 100.397L123.612 101.374ZM127.022 101.682L126.044 101.892C126.04 101.874 126.048 101.862 126.035 101.95C126.023 102.031 125.978 102.27 125.978 102.54H126.978H127.978C127.978 102.458 127.988 102.422 128.014 102.239C128.04 102.063 128.07 101.798 128 101.472L127.022 101.682ZM126.978 102.54L127.611 103.314C127.757 103.195 128.125 102.972 128.578 102.764C129.045 102.549 129.427 102.43 129.601 102.414L129.508 101.418L129.415 100.422C128.885 100.472 128.244 100.716 127.742 100.947C127.228 101.184 126.683 101.489 126.345 101.766L126.978 102.54ZM129.508 101.418L129.589 102.415C130.88 102.31 131.299 102.654 131.488 102.933C131.759 103.333 131.87 104.03 131.833 105.121C131.816 105.641 131.769 106.189 131.72 106.773C131.673 107.346 131.624 107.952 131.611 108.539C131.586 109.668 131.68 110.97 132.39 111.965L133.204 111.384L134.018 110.803C133.716 110.379 133.587 109.666 133.611 108.584C133.622 108.066 133.666 107.518 133.714 106.938C133.761 106.37 133.813 105.768 133.832 105.189C133.869 104.083 133.809 102.791 133.144 101.811C132.397 100.71 131.117 100.284 129.427 100.421L129.508 101.418ZM142.028 104.74L143.028 104.761L143.028 104.75L142.028 104.74ZM142.468 110.944L141.488 111.145L141.496 111.182L141.506 111.219L142.468 110.944ZM142.204 111.23L142.062 110.24L142.02 110.246L141.978 110.256L142.204 111.23ZM136.638 111.692L136.601 112.691L136.602 112.691L136.638 111.692ZM133.558 108.634L132.559 108.593L132.558 108.603L133.558 108.634ZM136.264 105.642L136.06 104.663L136.06 104.663L136.264 105.642ZM136.506 104.036L136.658 105.024L136.659 105.024L136.506 104.036ZM134.856 104.498L134.613 103.528L134.576 103.537L134.54 103.549L134.856 104.498ZM134.46 104.212L133.465 104.312L133.467 104.333L133.47 104.353L134.46 104.212ZM134.262 102.584L135.258 102.493L135.254 102.456L135.248 102.42L134.262 102.584ZM134.46 102.078L134.831 103.006L134.856 102.996L134.881 102.985L134.46 102.078ZM137.914 108.964L137.787 107.972L137.769 107.974L137.752 107.977L137.914 108.964ZM138.024 107.204L138.069 108.203L138.079 108.203L138.088 108.202L138.024 107.204ZM142.028 104.74L141.028 104.719C140.983 106.872 141.138 109.439 141.488 111.145L142.468 110.944L143.447 110.743C143.138 109.237 142.984 106.832 143.028 104.761L142.028 104.74ZM142.468 110.944L141.506 111.219C141.463 111.069 141.464 110.9 141.517 110.737C141.568 110.584 141.652 110.477 141.722 110.411C141.85 110.29 141.978 110.252 142.062 110.24L142.204 111.23L142.345 112.22C142.584 112.186 142.866 112.082 143.098 111.862C143.36 111.614 143.575 111.179 143.429 110.669L142.468 110.944ZM142.204 111.23L141.978 110.256C140.293 110.646 137.859 110.735 136.673 110.693L136.638 111.692L136.602 112.691C137.88 112.737 140.507 112.65 142.429 112.204L142.204 111.23ZM136.638 111.692L136.675 110.693C135.92 110.665 135.39 110.467 135.068 110.182C134.777 109.924 134.532 109.485 134.557 108.665L133.558 108.634L132.558 108.603C132.518 109.895 132.922 110.952 133.742 111.679C134.53 112.378 135.573 112.653 136.601 112.691L136.638 111.692ZM133.558 108.634L134.557 108.675C134.581 108.08 134.779 107.648 135.072 107.334C135.374 107.011 135.834 106.753 136.468 106.621L136.264 105.642L136.06 104.663C135.11 104.861 134.25 105.285 133.611 105.969C132.964 106.661 132.6 107.56 132.559 108.593L133.558 108.634ZM136.264 105.642L136.467 106.621C137.019 106.506 137.514 106.287 137.907 106.013C138.272 105.759 138.658 105.379 138.82 104.887C138.907 104.623 138.941 104.279 138.8 103.926C138.657 103.566 138.384 103.33 138.105 103.192C137.603 102.945 136.971 102.952 136.352 103.048L136.506 104.036L136.659 105.024C136.894 104.988 137.056 104.982 137.158 104.988C137.267 104.994 137.271 105.011 137.219 104.986C137.156 104.954 137.02 104.861 136.943 104.667C136.868 104.481 136.899 104.326 136.92 104.263C136.939 104.204 136.956 104.197 136.925 104.234C136.897 104.266 136.845 104.315 136.763 104.373C136.598 104.488 136.355 104.602 136.06 104.663L136.264 105.642ZM136.506 104.036L136.354 103.048C135.986 103.104 135.643 103.207 135.359 103.298C135.052 103.397 134.836 103.472 134.613 103.528L134.856 104.498L135.098 105.468C135.404 105.392 135.727 105.28 135.969 105.203C136.235 105.118 136.454 105.056 136.658 105.024L136.506 104.036ZM134.856 104.498L134.54 103.549C134.512 103.559 134.563 103.537 134.659 103.534C134.774 103.531 134.971 103.555 135.163 103.695C135.343 103.825 135.414 103.981 135.436 104.039C135.457 104.094 135.456 104.117 135.45 104.071L134.46 104.212L133.47 104.353C133.485 104.461 133.512 104.608 133.57 104.759C133.629 104.913 133.747 105.138 133.987 105.312C134.49 105.678 135.039 105.491 135.172 105.447L134.856 104.498ZM134.46 104.212L135.455 104.112C135.442 103.986 135.395 103.618 135.353 103.281C135.307 102.919 135.267 102.592 135.258 102.493L134.262 102.584L133.266 102.675C133.279 102.818 133.326 103.195 133.369 103.531C133.414 103.893 133.455 104.218 133.465 104.312L134.46 104.212ZM134.262 102.584L135.248 102.42C135.241 102.377 135.243 102.374 135.243 102.393C135.243 102.413 135.243 102.485 135.21 102.581C135.175 102.688 135.111 102.794 135.021 102.879C134.939 102.959 134.862 102.994 134.831 103.006L134.46 102.078L134.088 101.15C133.779 101.273 133.456 101.52 133.313 101.949C133.202 102.283 133.251 102.602 133.275 102.748L134.262 102.584ZM134.46 102.078L134.881 102.985C136.138 102.402 137.827 102.043 139.116 102.273C139.741 102.385 140.201 102.621 140.503 102.962C140.796 103.292 141.037 103.827 141.028 104.73L142.028 104.74L143.028 104.75C143.041 103.464 142.69 102.412 141.998 101.633C141.315 100.865 140.396 100.47 139.467 100.304C137.648 99.9791 135.531 100.478 134.039 101.171L134.46 102.078ZM137.914 108.964L138.041 109.956C138.621 109.882 139.02 109.529 139.247 109.15C139.462 108.791 139.542 108.387 139.546 108.039C139.551 107.695 139.482 107.296 139.282 106.947C139.072 106.581 138.63 106.163 137.959 106.206L138.024 107.204L138.088 108.202C137.953 108.211 137.816 108.173 137.707 108.102C137.608 108.038 137.562 107.969 137.548 107.943C137.533 107.917 137.534 107.91 137.539 107.93C137.543 107.949 137.547 107.978 137.546 108.014C137.546 108.049 137.541 108.08 137.535 108.104C137.529 108.128 137.525 108.133 137.531 108.123C137.537 108.112 137.56 108.078 137.609 108.043C137.662 108.005 137.726 107.98 137.787 107.972L137.914 108.964ZM138.024 107.204L137.978 106.205C137.392 106.232 136.942 106.542 136.656 106.872C136.37 107.199 136.181 107.612 136.115 108.024C136.052 108.419 136.08 108.979 136.466 109.435C136.893 109.938 137.519 110.042 138.076 109.951L137.914 108.964L137.752 107.977C137.691 107.987 137.705 107.974 137.765 107.991C137.834 108.01 137.921 108.058 137.991 108.141C138.057 108.219 138.079 108.291 138.085 108.324C138.091 108.356 138.087 108.362 138.09 108.342C138.098 108.292 138.128 108.226 138.163 108.185C138.198 108.146 138.172 108.198 138.069 108.203L138.024 107.204ZM151.158 110.174L150.174 110.353L150.187 110.423L150.209 110.49L151.158 110.174ZM150.674 110.636L151.16 111.51L151.182 111.498L151.204 111.484L150.674 110.636ZM150.08 110.966L149.708 110.038L149.671 110.052L149.635 110.07L150.08 110.966ZM143.678 102.848L142.82 102.333L142.816 102.34L143.678 102.848ZM145.988 101.11L145.732 100.143L145.712 100.149L145.692 100.155L145.988 101.11ZM148.298 101L148.241 101.998L148.269 102H148.298V101ZM149.354 101.11L149.748 100.191L149.727 100.182L149.705 100.174L149.354 101.11ZM149.53 101.616L150.491 101.891L150.501 101.858L150.508 101.826L149.53 101.616ZM149.09 103.772L150.086 103.855L150.09 103.814V103.772H149.09ZM148.738 104.058L148.694 105.057L148.716 105.058H148.738V104.058ZM147.22 104.146L146.917 103.193L146.903 103.197L146.89 103.202L147.22 104.146ZM147.484 108.634L147.19 109.59L147.192 109.59L147.484 108.634ZM149.596 108.26L149.838 109.23L149.846 109.228L149.854 109.226L149.596 108.26ZM150.19 108.634L151.022 108.079L151.007 108.056L150.99 108.034L150.19 108.634ZM151.158 110.174L150.209 110.49C150.164 110.354 150.154 110.208 150.179 110.067C150.204 109.933 150.255 109.833 150.296 109.77C150.336 109.708 150.374 109.67 150.393 109.652C150.403 109.642 150.411 109.635 150.416 109.632C150.421 109.628 150.423 109.626 150.423 109.626C150.424 109.626 150.422 109.627 150.418 109.629C150.414 109.632 150.409 109.635 150.402 109.64C150.387 109.649 150.368 109.659 150.344 109.673C150.312 109.691 150.214 109.744 150.144 109.788L150.674 110.636L151.204 111.484C151.204 111.484 151.206 111.483 151.212 111.479C151.219 111.475 151.227 111.471 151.237 111.465C151.248 111.458 151.26 111.452 151.275 111.444C151.289 111.436 151.306 111.427 151.323 111.417C151.386 111.382 151.488 111.323 151.59 111.25C151.681 111.185 151.845 111.057 151.974 110.858C152.123 110.629 152.243 110.266 152.107 109.858L151.158 110.174ZM150.674 110.636L150.188 109.762C150.072 109.826 149.926 109.918 149.871 109.952C149.791 109.999 149.745 110.023 149.708 110.038L150.08 110.966L150.451 111.894C150.634 111.821 150.786 111.735 150.9 111.667C151.037 111.585 151.077 111.556 151.16 111.51L150.674 110.636ZM150.08 110.966L149.635 110.07C148.272 110.747 147.214 110.807 146.432 110.588C145.648 110.368 145.006 109.831 144.544 109.059C143.592 107.465 143.53 105.068 144.539 103.356L143.678 102.848L142.816 102.34C141.427 104.698 141.509 107.878 142.828 110.085C143.502 111.212 144.528 112.132 145.893 112.514C147.259 112.896 148.829 112.703 150.525 111.862L150.08 110.966ZM143.678 102.848L144.535 103.362C144.854 102.831 145.563 102.288 146.284 102.065L145.988 101.11L145.692 100.155C144.565 100.504 143.425 101.325 142.82 102.334L143.678 102.848ZM145.988 101.11L146.244 102.077C146.812 101.926 147.442 101.953 148.241 101.998L148.298 101L148.355 100.002C147.614 99.9593 146.66 99.8977 145.732 100.143L145.988 101.11ZM148.298 101V102C148.367 102 148.555 102.008 148.753 102.026C148.849 102.035 148.934 102.045 148.998 102.054C149.03 102.059 149.05 102.063 149.059 102.064C149.074 102.068 149.048 102.063 149.003 102.046L149.354 101.11L149.705 100.174C149.552 100.116 149.383 100.089 149.293 100.076C149.177 100.059 149.05 100.045 148.932 100.034C148.701 100.014 148.449 100 148.298 100V101ZM149.354 101.11L148.96 102.029C149.016 102.053 148.964 102.038 148.887 101.975C148.841 101.937 148.777 101.875 148.719 101.784C148.658 101.689 148.619 101.586 148.6 101.486C148.567 101.314 148.602 101.188 148.594 101.223C148.593 101.231 148.59 101.243 148.581 101.279C148.574 101.311 148.563 101.356 148.552 101.406L149.53 101.616L150.508 101.826C150.513 101.799 150.519 101.775 150.527 101.743C150.533 101.717 150.544 101.672 150.553 101.628C150.567 101.56 150.611 101.352 150.564 101.108C150.505 100.803 150.337 100.578 150.154 100.428C150.005 100.306 149.845 100.233 149.748 100.191L149.354 101.11ZM149.53 101.616L148.568 101.341C148.514 101.53 148.398 102.021 148.299 102.484C148.248 102.721 148.199 102.964 148.162 103.173C148.131 103.346 148.09 103.59 148.09 103.772H149.09H150.09C150.09 103.8 150.093 103.736 150.131 103.524C150.162 103.348 150.206 103.129 150.255 102.904C150.353 102.443 150.457 102.01 150.491 101.891L149.53 101.616ZM149.09 103.772L148.093 103.689C148.089 103.746 148.088 103.709 148.108 103.642C148.134 103.555 148.208 103.373 148.399 103.225C148.573 103.089 148.739 103.065 148.773 103.06C148.805 103.056 148.812 103.058 148.738 103.058V104.058V105.058C148.807 105.058 148.927 105.058 149.048 105.041C149.171 105.024 149.404 104.977 149.627 104.803C149.867 104.616 149.975 104.38 150.024 104.214C150.067 104.069 150.08 103.93 150.086 103.855L149.09 103.772ZM148.738 104.058L148.781 103.059C148.354 103.04 147.611 102.972 146.917 103.193L147.22 104.146L147.523 105.099C147.797 105.012 148.109 105.032 148.694 105.057L148.738 104.058ZM147.22 104.146L146.89 103.202C146.183 103.449 145.754 104.034 145.518 104.58C145.276 105.138 145.174 105.782 145.189 106.398C145.204 107.014 145.339 107.671 145.638 108.242C145.94 108.82 146.442 109.36 147.19 109.59L147.484 108.634L147.778 107.678C147.667 107.644 147.534 107.552 147.41 107.314C147.282 107.07 147.198 106.728 147.188 106.349C147.179 105.969 147.246 105.621 147.353 105.375C147.465 105.116 147.564 105.085 147.55 105.09L147.22 104.146ZM147.484 108.634L147.192 109.59C147.867 109.797 148.514 109.668 148.954 109.538C149.181 109.471 149.39 109.393 149.545 109.335C149.725 109.267 149.798 109.24 149.838 109.23L149.596 108.26L149.353 107.29C149.174 107.335 148.972 107.413 148.839 107.463C148.68 107.523 148.536 107.577 148.39 107.62C148.082 107.71 147.892 107.713 147.776 107.678L147.484 108.634ZM149.596 108.26L149.854 109.226C149.842 109.229 149.752 109.252 149.618 109.227C149.469 109.2 149.356 109.13 149.287 109.071C149.236 109.026 149.218 108.993 149.249 109.037C149.263 109.057 149.276 109.075 149.302 109.113C149.326 109.146 149.355 109.188 149.39 109.234L150.19 108.634L150.99 108.034C150.94 107.968 150.946 107.97 150.871 107.867C150.824 107.802 150.731 107.675 150.597 107.559C150.446 107.428 150.242 107.309 149.982 107.261C149.737 107.216 149.515 107.247 149.338 107.294L149.596 108.26ZM150.19 108.634L149.358 109.189C149.398 109.249 149.483 109.37 149.569 109.494C149.661 109.627 149.77 109.785 149.875 109.942C149.981 110.102 150.076 110.25 150.145 110.366C150.179 110.425 150.2 110.464 150.21 110.484C150.232 110.53 150.195 110.468 150.174 110.353L151.158 110.174L152.142 109.995C152.11 109.82 152.038 109.67 152.008 109.608C151.966 109.522 151.916 109.434 151.869 109.352C151.772 109.188 151.653 109.003 151.539 108.833C151.424 108.66 151.307 108.49 151.212 108.354C151.111 108.208 151.048 108.118 151.022 108.079L150.19 108.634ZM161.214 111.714L162.211 111.637L162.209 111.62L162.208 111.603L161.214 111.714ZM157.54 109.602L158.537 109.526L158.462 108.549L157.484 108.604L157.54 109.602ZM155.296 109.668L155.267 108.668L154.135 108.701L154.307 109.82L155.296 109.668ZM155.34 111.274L156.339 111.242L156.337 111.187L156.33 111.133L155.34 111.274ZM151.732 112.132L150.732 112.159L150.732 112.161L151.732 112.132ZM151.204 103.156L150.207 103.071L150.204 103.105L150.204 103.139L151.204 103.156ZM153.712 102.738L153.601 101.744L153.487 101.757L153.379 101.795L153.712 102.738ZM154.658 102.782L155.651 102.663L155.609 102.319L155.365 102.075L154.658 102.782ZM154.988 107.204L153.994 107.314L154.093 108.204H154.988V107.204ZM157.276 107.182V108.182H158.297L158.275 107.161L157.276 107.182ZM157.254 102.826L156.903 101.89L156.52 102.033L156.347 102.404L157.254 102.826ZM159.608 102.738V103.738H159.696L159.783 103.723L159.608 102.738ZM160.642 103.706L159.649 103.582L159.639 103.665L159.643 103.748L160.642 103.706ZM161.214 111.714L160.217 111.791C160.222 111.86 160.204 111.754 160.249 111.615C160.276 111.535 160.318 111.455 160.378 111.384C160.435 111.316 160.492 111.276 160.527 111.255C160.584 111.222 160.579 111.243 160.423 111.267C160.277 111.29 160.047 111.308 159.696 111.308V112.308V113.308C160.104 113.308 160.445 113.288 160.73 113.244C161.004 113.201 161.288 113.127 161.538 112.981C161.819 112.816 162.042 112.566 162.149 112.239C162.24 111.963 162.216 111.711 162.211 111.637L161.214 111.714ZM159.696 112.308V111.308C158.926 111.308 158.528 111.28 158.319 111.234C158.224 111.213 158.245 111.203 158.306 111.247C158.39 111.307 158.456 111.398 158.488 111.487C158.509 111.547 158.499 111.564 158.499 111.473C158.499 111.382 158.507 111.267 158.521 111.073C158.548 110.704 158.587 110.183 158.537 109.526L157.54 109.602L156.543 109.678C156.581 110.176 156.553 110.57 156.527 110.925C156.514 111.093 156.499 111.292 156.499 111.474C156.499 111.655 156.513 111.902 156.603 112.155C156.703 112.438 156.882 112.687 157.145 112.875C157.385 113.046 157.651 113.134 157.887 113.186C158.339 113.287 158.947 113.308 159.696 113.308V112.308ZM157.54 109.602L157.484 108.604C157.106 108.625 156.061 108.646 155.267 108.668L155.296 109.668L155.324 110.668C156.071 110.646 157.181 110.623 157.595 110.6L157.54 109.602ZM155.296 109.668L154.307 109.82C154.307 109.817 154.312 109.87 154.315 110.016C154.318 110.144 154.318 110.296 154.318 110.463C154.318 110.624 154.318 110.798 154.321 110.953C154.323 111.092 154.329 111.27 154.35 111.415L155.34 111.274L156.33 111.133C156.33 111.137 156.328 111.121 156.326 111.075C156.323 111.033 156.322 110.979 156.32 110.914C156.318 110.783 156.318 110.629 156.318 110.463C156.318 110.302 156.318 110.128 156.315 109.977C156.312 109.843 156.307 109.662 156.284 109.516L155.296 109.668ZM155.34 111.274L154.34 111.306C154.345 111.441 154.359 111.565 154.374 111.668C154.388 111.767 154.406 111.869 154.417 111.933C154.429 112.009 154.435 112.051 154.438 112.081C154.441 112.111 154.437 112.096 154.442 112.056C154.448 112.011 154.468 111.924 154.528 111.827C154.591 111.726 154.672 111.657 154.742 111.617C154.803 111.582 154.838 111.578 154.816 111.583C154.795 111.587 154.739 111.594 154.636 111.594V112.594V113.594C154.985 113.594 155.389 113.552 155.74 113.35C156.173 113.101 156.373 112.702 156.424 112.323C156.464 112.027 156.411 111.735 156.389 111.603C156.358 111.416 156.342 111.329 156.339 111.242L155.34 111.274ZM154.636 112.594V111.594C154.405 111.594 154.08 111.615 153.802 111.628C153.498 111.643 153.197 111.654 152.93 111.644C152.643 111.634 152.487 111.603 152.431 111.582C152.371 111.56 152.719 111.683 152.731 112.103L151.732 112.132L150.732 112.161C150.755 112.955 151.373 113.323 151.736 113.457C152.103 113.593 152.523 113.631 152.86 113.643C153.217 113.655 153.589 113.641 153.9 113.626C154.237 113.609 154.47 113.594 154.636 113.594V112.594ZM151.732 112.132L152.731 112.105C152.697 110.828 152.551 109.178 152.423 107.581C152.293 105.956 152.183 104.382 152.204 103.173L151.204 103.156L150.204 103.139C150.181 104.46 150.301 106.131 150.43 107.74C150.56 109.377 150.7 110.95 150.732 112.159L151.732 112.132ZM151.204 103.156L152.2 103.241C152.166 103.643 151.827 103.752 151.868 103.739C151.917 103.724 152.059 103.704 152.328 103.708C152.584 103.711 152.834 103.732 153.112 103.749C153.238 103.756 153.379 103.763 153.509 103.762C153.605 103.761 153.827 103.758 154.045 103.681L153.712 102.738L153.379 101.795C153.503 101.751 153.579 101.761 153.49 101.762C153.434 101.763 153.352 101.76 153.231 101.752C153.013 101.739 152.673 101.712 152.357 101.708C152.053 101.703 151.643 101.715 151.274 101.829C150.897 101.947 150.275 102.284 150.207 103.071L151.204 103.156ZM153.712 102.738L153.822 103.732C153.852 103.729 153.891 103.724 153.921 103.72C153.954 103.716 153.989 103.712 154.025 103.709C154.098 103.701 154.169 103.695 154.23 103.694C154.297 103.692 154.321 103.696 154.312 103.694C154.307 103.693 154.27 103.687 154.216 103.666C154.165 103.646 154.059 103.597 153.951 103.489L154.658 102.782L155.365 102.075C155.094 101.805 154.762 101.741 154.633 101.72C154.463 101.692 154.297 101.691 154.173 101.694C153.926 101.701 153.664 101.737 153.601 101.744L153.712 102.738ZM154.658 102.782L153.665 102.901C153.759 103.689 153.797 104.369 153.832 105.069C153.868 105.765 153.902 106.488 153.994 107.314L154.988 107.204L155.982 107.094C155.897 106.336 155.866 105.673 155.83 104.967C155.794 104.264 155.754 103.525 155.651 102.663L154.658 102.782ZM154.988 107.204V108.204C155.315 108.204 155.735 108.198 156.145 108.193C156.56 108.187 156.965 108.182 157.276 108.182V107.182V106.182C156.949 106.182 156.529 106.188 156.118 106.193C155.704 106.199 155.299 106.204 154.988 106.204V107.204ZM157.276 107.182L158.275 107.161C158.253 106.082 158.13 105.136 158.08 104.498C158.025 103.79 158.061 103.462 158.16 103.248L157.254 102.826L156.347 102.404C156.006 103.136 156.031 103.941 156.086 104.652C156.147 105.433 156.255 106.192 156.276 107.203L157.276 107.182ZM157.254 102.826L157.605 103.762C157.535 103.788 157.558 103.77 157.787 103.754C157.966 103.742 158.192 103.735 158.434 103.732C158.935 103.727 159.376 103.738 159.608 103.738V102.738V101.738C159.466 101.738 158.905 101.727 158.411 101.733C158.155 101.735 157.884 101.743 157.648 101.759C157.461 101.772 157.148 101.798 156.903 101.89L157.254 102.826ZM159.608 102.738L159.783 103.723C159.885 103.704 159.962 103.694 160.021 103.69C160.08 103.685 160.108 103.687 160.112 103.687C160.117 103.688 160.082 103.685 160.025 103.662C159.963 103.638 159.887 103.593 159.817 103.52C159.748 103.448 159.709 103.375 159.689 103.322C159.671 103.274 159.67 103.247 159.671 103.257C159.672 103.267 159.673 103.298 159.671 103.356C159.668 103.414 159.661 103.488 159.649 103.582L160.642 103.706L161.634 103.83C161.664 103.59 161.687 103.32 161.661 103.06C161.635 102.798 161.549 102.434 161.257 102.132C160.958 101.822 160.586 101.722 160.293 101.695C160.009 101.67 159.712 101.704 159.433 101.753L159.608 102.738ZM160.642 103.706L159.643 103.748C159.775 106.905 159.886 108.845 160.22 111.825L161.214 111.714L162.208 111.603C161.881 108.687 161.772 106.799 161.641 103.664L160.642 103.706ZM172.49 104.982L173.485 104.877L173.484 104.872L172.49 104.982ZM168.068 111.626L168.226 112.613L168.227 112.613L168.068 111.626ZM164.746 111.296L165.063 110.347L164.746 111.296ZM163.118 110.438L162.445 111.177L162.447 111.18L163.118 110.438ZM161.556 106.808H162.556V106.794L162.556 106.781L161.556 106.808ZM163.426 102.518L164.127 103.231L164.133 103.225L163.426 102.518ZM165.868 101.264L166.083 102.241L166.097 102.238L166.111 102.234L165.868 101.264ZM167.012 108.15L167.098 109.146L167.1 109.146L167.012 108.15ZM168.486 104.982L169.256 104.343L169.251 104.338L168.486 104.982ZM166.902 104.476L167.079 105.46L167.089 105.459L167.098 105.457L166.902 104.476ZM172.49 104.982L171.496 105.087C171.61 106.164 171.581 107.436 171.102 108.482C170.659 109.453 169.782 110.338 167.91 110.639L168.068 111.626L168.227 112.613C170.732 112.21 172.188 110.917 172.921 109.314C173.62 107.786 173.613 106.088 173.485 104.877L172.49 104.982ZM168.068 111.626L167.91 110.639C167.003 110.784 166.001 110.66 165.063 110.347L164.746 111.296L164.43 112.245C165.603 112.636 166.934 112.82 168.226 112.613L168.068 111.626ZM164.746 111.296L165.063 110.347C164.503 110.161 164.093 109.971 163.789 109.696L163.118 110.438L162.447 111.18C163.068 111.741 163.802 112.035 164.43 112.245L164.746 111.296ZM163.118 110.438L163.792 109.699C163.028 109.003 162.556 107.85 162.556 106.808H161.556H160.556C160.556 108.362 161.229 110.069 162.445 111.177L163.118 110.438ZM161.556 106.808L162.556 106.781C162.521 105.492 162.997 104.342 164.127 103.231L163.426 102.518L162.725 101.805C161.259 103.246 160.504 104.912 160.557 106.835L161.556 106.808ZM163.426 102.518L164.133 103.225C164.602 102.756 165.314 102.41 166.083 102.241L165.868 101.264L165.654 100.287C164.619 100.514 163.527 101.004 162.719 101.811L163.426 102.518ZM165.868 101.264L166.111 102.234C167.238 101.952 168.565 102.103 169.629 102.639C170.679 103.167 171.377 104.012 171.496 105.092L172.49 104.982L173.484 104.872C173.273 102.96 172.025 101.605 170.528 100.852C169.045 100.106 167.227 99.8936 165.626 100.294L165.868 101.264ZM167.012 108.15L167.1 109.146C169.633 108.925 170.759 106.153 169.256 104.343L168.486 104.982L167.717 105.621C168.15 106.143 167.912 107.067 166.925 107.154L167.012 108.15ZM168.486 104.982L169.251 104.338C168.63 103.6 167.558 103.325 166.706 103.495L166.902 104.476L167.098 105.457C167.346 105.407 167.639 105.528 167.721 105.626L168.486 104.982ZM166.902 104.476L166.726 103.492C164.982 103.805 163.94 105.181 163.936 106.574C163.934 107.273 164.2 107.988 164.791 108.499C165.384 109.012 166.191 109.224 167.098 109.146L167.012 108.15L166.927 107.154C166.425 107.197 166.193 107.068 166.099 106.987C166.004 106.904 165.936 106.772 165.936 106.58C165.937 106.191 166.249 105.609 167.079 105.46L166.902 104.476ZM181.242 110.174L180.258 110.353L180.27 110.423L180.293 110.49L181.242 110.174ZM180.758 110.636L181.243 111.51L181.266 111.498L181.288 111.484L180.758 110.636ZM180.164 110.966L179.792 110.038L179.755 110.052L179.719 110.07L180.164 110.966ZM173.762 102.848L172.904 102.333L172.9 102.34L173.762 102.848ZM176.072 101.11L175.816 100.143L175.796 100.149L175.776 100.155L176.072 101.11ZM178.382 101L178.324 101.998L178.353 102H178.382V101ZM179.438 101.11L179.831 100.191L179.81 100.182L179.789 100.174L179.438 101.11ZM179.614 101.616L180.575 101.891L180.584 101.858L180.591 101.826L179.614 101.616ZM179.174 103.772L180.17 103.855L180.174 103.814V103.772H179.174ZM178.822 104.058L178.778 105.057L178.8 105.058H178.822V104.058ZM177.304 104.146L177 103.193L176.987 103.197L176.974 103.202L177.304 104.146ZM177.568 108.634L177.273 109.59L177.275 109.59L177.568 108.634ZM179.68 108.26L179.922 109.23L179.93 109.228L179.937 109.226L179.68 108.26ZM180.274 108.634L181.106 108.079L181.09 108.056L181.074 108.034L180.274 108.634ZM181.242 110.174L180.293 110.49C180.248 110.354 180.237 110.208 180.263 110.067C180.287 109.933 180.339 109.833 180.379 109.77C180.42 109.708 180.458 109.67 180.476 109.652C180.487 109.642 180.495 109.635 180.499 109.632C180.504 109.628 180.507 109.626 180.507 109.626C180.507 109.626 180.505 109.627 180.502 109.629C180.498 109.632 180.492 109.635 180.485 109.64C180.47 109.649 180.452 109.659 180.427 109.673C180.396 109.691 180.298 109.744 180.228 109.788L180.758 110.636L181.288 111.484C181.287 111.484 181.29 111.483 181.296 111.479C181.302 111.475 181.31 111.471 181.321 111.465C181.332 111.458 181.344 111.452 181.359 111.444C181.373 111.436 181.389 111.427 181.406 111.417C181.47 111.382 181.572 111.323 181.673 111.25C181.765 111.185 181.929 111.057 182.058 110.858C182.206 110.629 182.326 110.266 182.19 109.858L181.242 110.174ZM180.758 110.636L180.272 109.762C180.156 109.826 180.01 109.918 179.954 109.952C179.875 109.999 179.829 110.023 179.792 110.038L180.164 110.966L180.535 111.894C180.718 111.821 180.87 111.735 180.983 111.667C181.12 111.585 181.161 111.556 181.243 111.51L180.758 110.636ZM180.164 110.966L179.719 110.07C178.356 110.747 177.298 110.807 176.515 110.588C175.732 110.368 175.09 109.831 174.628 109.059C173.676 107.465 173.614 105.068 174.623 103.356L173.762 102.848L172.9 102.34C171.511 104.698 171.592 107.878 172.911 110.085C173.585 111.212 174.612 112.132 175.976 112.514C177.342 112.896 178.913 112.703 180.608 111.862L180.164 110.966ZM173.762 102.848L174.619 103.362C174.938 102.831 175.646 102.288 176.367 102.065L176.072 101.11L175.776 100.155C174.649 100.504 173.509 101.325 172.904 102.334L173.762 102.848ZM176.072 101.11L176.327 102.077C176.896 101.926 177.526 101.953 178.324 101.998L178.382 101L178.439 100.002C177.697 99.9593 176.743 99.8977 175.816 100.143L176.072 101.11ZM178.382 101V102C178.451 102 178.638 102.008 178.837 102.026C178.933 102.035 179.018 102.045 179.082 102.054C179.114 102.059 179.134 102.063 179.142 102.064C179.158 102.068 179.132 102.063 179.086 102.046L179.438 101.11L179.789 100.174C179.635 100.116 179.467 100.089 179.376 100.076C179.26 100.059 179.134 100.045 179.015 100.034C178.785 100.014 178.532 100 178.382 100V101ZM179.438 101.11L179.044 102.029C179.1 102.053 179.047 102.038 178.971 101.975C178.924 101.937 178.861 101.875 178.802 101.784C178.742 101.689 178.703 101.586 178.684 101.486C178.651 101.314 178.685 101.188 178.678 101.223C178.676 101.231 178.673 101.243 178.665 101.279C178.657 101.311 178.647 101.356 178.636 101.406L179.614 101.616L180.591 101.826C180.597 101.799 180.603 101.775 180.61 101.743C180.617 101.717 180.627 101.672 180.636 101.628C180.65 101.56 180.695 101.352 180.648 101.108C180.589 100.803 180.421 100.578 180.238 100.428C180.089 100.306 179.929 100.233 179.831 100.191L179.438 101.11ZM179.614 101.616L178.652 101.341C178.598 101.53 178.482 102.021 178.383 102.484C178.332 102.721 178.283 102.964 178.245 103.173C178.215 103.346 178.174 103.59 178.174 103.772H179.174H180.174C180.174 103.8 180.176 103.736 180.214 103.524C180.246 103.348 180.29 103.129 180.338 102.904C180.437 102.443 180.541 102.01 180.575 101.891L179.614 101.616ZM179.174 103.772L178.177 103.689C178.172 103.746 178.171 103.709 178.191 103.642C178.217 103.555 178.292 103.373 178.483 103.225C178.656 103.089 178.823 103.065 178.857 103.06C178.889 103.056 178.896 103.058 178.822 103.058V104.058V105.058C178.891 105.058 179.01 105.058 179.131 105.041C179.255 105.024 179.487 104.977 179.71 104.803C179.951 104.616 180.058 104.38 180.108 104.214C180.151 104.069 180.164 103.93 180.17 103.855L179.174 103.772ZM178.822 104.058L178.865 103.059C178.438 103.04 177.694 102.972 177 103.193L177.304 104.146L177.607 105.099C177.881 105.012 178.193 105.032 178.778 105.057L178.822 104.058ZM177.304 104.146L176.974 103.202C176.266 103.449 175.838 104.034 175.601 104.58C175.359 105.138 175.257 105.782 175.273 106.398C175.288 107.014 175.422 107.671 175.722 108.242C176.024 108.82 176.526 109.36 177.273 109.59L177.568 108.634L177.862 107.678C177.751 107.644 177.618 107.552 177.493 107.314C177.366 107.07 177.281 106.728 177.272 106.349C177.263 105.969 177.33 105.621 177.436 105.375C177.548 105.116 177.648 105.085 177.633 105.09L177.304 104.146ZM177.568 108.634L177.275 109.59C177.951 109.797 178.598 109.668 179.038 109.538C179.265 109.471 179.474 109.393 179.628 109.335C179.808 109.267 179.882 109.24 179.922 109.23L179.68 108.26L179.437 107.29C179.257 107.335 179.056 107.413 178.922 107.463C178.763 107.523 178.62 107.577 178.473 107.62C178.165 107.71 177.976 107.713 177.86 107.678L177.568 108.634ZM179.68 108.26L179.937 109.226C179.926 109.229 179.835 109.252 179.702 109.227C179.553 109.2 179.44 109.13 179.371 109.071C179.32 109.026 179.301 108.993 179.333 109.037C179.347 109.057 179.36 109.075 179.386 109.113C179.409 109.146 179.439 109.188 179.474 109.234L180.274 108.634L181.074 108.034C181.024 107.968 181.029 107.97 180.955 107.867C180.908 107.802 180.815 107.675 180.681 107.559C180.529 107.428 180.326 107.309 180.066 107.261C179.821 107.216 179.598 107.247 179.422 107.294L179.68 108.26ZM180.274 108.634L179.441 109.189C179.481 109.249 179.567 109.37 179.653 109.494C179.745 109.627 179.854 109.785 179.958 109.942C180.065 110.102 180.16 110.25 180.228 110.366C180.263 110.425 180.284 110.464 180.294 110.484C180.316 110.53 180.279 110.468 180.258 110.353L181.242 110.174L182.225 109.995C182.194 109.82 182.122 109.67 182.092 109.608C182.05 109.522 182 109.434 181.952 109.352C181.856 109.188 181.736 109.003 181.623 108.833C181.507 108.66 181.391 108.49 181.296 108.354C181.195 108.208 181.132 108.118 181.106 108.079L180.274 108.634ZM188.033 102.166L188.133 103.161L188.145 103.16L188.157 103.158L188.033 102.166ZM188.341 102.892L187.344 102.825L187.341 102.859V102.892H188.341ZM188.253 104.542L188.96 105.249L189.03 105.179L189.085 105.097L188.253 104.542ZM185.921 104.586L185.967 103.587L184.956 103.541L184.922 104.553L185.921 104.586ZM185.987 112.22H186.987V112.203L186.987 112.186L185.987 112.22ZM185.481 112.638V111.638H185.467L185.454 111.638L185.481 112.638ZM182.357 112.44L181.463 112.887L181.507 112.976L181.568 113.054L182.357 112.44ZM182.225 104.586L183.225 104.569L183.208 103.586H182.225V104.586ZM180.619 104.608L180.303 105.557L180.457 105.608H180.619V104.608ZM180.443 104.52L179.736 105.227V105.227L180.443 104.52ZM180.333 104.278L179.349 104.457L179.355 104.489L179.363 104.521L180.333 104.278ZM180.333 102.606L181.317 102.785L181.333 102.696V102.606H180.333ZM180.421 102.364L181.128 103.071L181.179 103.021L181.221 102.964L180.421 102.364ZM188.033 102.166L188.157 103.158C188.028 103.174 187.793 103.154 187.584 102.975C187.407 102.824 187.364 102.657 187.356 102.627C187.347 102.589 187.352 102.585 187.352 102.637C187.352 102.685 187.349 102.742 187.344 102.825L188.341 102.892L189.339 102.959C189.347 102.833 189.378 102.475 189.299 102.151C189.256 101.975 189.153 101.685 188.882 101.454C188.579 101.195 188.215 101.135 187.909 101.174L188.033 102.166ZM188.341 102.892H187.341C187.341 103.109 187.336 103.328 187.331 103.561C187.325 103.79 187.319 104.033 187.319 104.278H188.319H189.319C189.319 104.061 189.324 103.842 189.33 103.609C189.335 103.38 189.341 103.137 189.341 102.892H188.341ZM188.319 104.278H187.319C187.319 104.245 187.323 104.218 187.329 104.189C187.333 104.173 187.34 104.149 187.352 104.119C187.363 104.09 187.384 104.043 187.421 103.987L188.253 104.542L189.085 105.097C189.282 104.801 189.319 104.467 189.319 104.278H188.319ZM188.253 104.542L187.546 103.835C187.676 103.705 187.806 103.668 187.84 103.66C187.881 103.65 187.897 103.652 187.879 103.652V104.652V105.652C187.994 105.652 188.153 105.643 188.325 105.6C188.492 105.559 188.743 105.467 188.96 105.249L188.253 104.542ZM187.879 104.652V103.652C187.424 103.652 186.461 103.61 185.967 103.587L185.921 104.586L185.876 105.585C186.349 105.606 187.367 105.652 187.879 105.652V104.652ZM185.921 104.586L184.922 104.553C184.877 105.907 184.944 110.949 184.988 112.254L185.987 112.22L186.987 112.186C186.943 110.895 186.878 105.905 186.921 104.619L185.921 104.586ZM185.987 112.22H184.987C184.987 112.011 185.097 111.832 185.226 111.734C185.334 111.651 185.431 111.638 185.481 111.638V112.638V113.638C185.796 113.638 186.145 113.548 186.441 113.322C186.757 113.081 186.987 112.693 186.987 112.22H185.987ZM185.481 112.638L185.454 111.638C184.678 111.66 183.914 111.638 183.083 111.638V112.638V113.638C183.836 113.638 184.701 113.66 185.509 113.638L185.481 112.638ZM183.083 112.638V111.638C183.02 111.638 182.976 111.638 182.935 111.636C182.895 111.634 182.876 111.631 182.872 111.63C182.866 111.629 182.896 111.634 182.945 111.658C182.997 111.684 183.076 111.735 183.147 111.826L182.357 112.44L181.568 113.054C181.863 113.434 182.27 113.552 182.503 113.596C182.742 113.641 182.979 113.638 183.083 113.638V112.638ZM182.357 112.44L183.252 111.993C183.274 112.036 183.282 112.07 183.286 112.088C183.29 112.107 183.291 112.122 183.291 112.132H182.291H181.291C181.291 112.362 181.335 112.632 181.463 112.887L182.357 112.44ZM182.291 112.132H183.291C183.291 110.85 183.247 105.85 183.225 104.569L182.225 104.586L181.225 104.603C181.247 105.874 181.291 110.862 181.291 112.132H182.291ZM182.225 104.586V103.586C182.138 103.586 181.763 103.592 181.407 103.597C181.037 103.603 180.686 103.608 180.619 103.608V104.608V105.608C180.706 105.608 181.082 105.602 181.437 105.597C181.808 105.591 182.158 105.586 182.225 105.586V104.586ZM180.619 104.608L180.936 103.659C180.917 103.653 180.913 103.652 180.91 103.651C180.909 103.65 180.92 103.654 180.937 103.662C180.967 103.676 181.057 103.719 181.15 103.813L180.443 104.52L179.736 105.227C179.98 105.471 180.299 105.555 180.303 105.557L180.619 104.608ZM180.443 104.52L181.15 103.813C181.239 103.902 181.282 103.991 181.3 104.036C181.309 104.057 181.312 104.07 181.312 104.069C181.311 104.066 181.31 104.06 181.303 104.035L180.333 104.278L179.363 104.521C179.373 104.56 179.443 104.934 179.736 105.227L180.443 104.52ZM180.333 104.278L181.317 104.099C181.321 104.12 181.314 104.071 181.308 103.912C181.303 103.778 181.3 103.612 181.3 103.442C181.3 103.272 181.303 103.106 181.308 102.972C181.314 102.812 181.321 102.764 181.317 102.785L180.333 102.606L179.349 102.427C179.324 102.569 179.314 102.76 179.309 102.898C179.303 103.063 179.3 103.254 179.3 103.442C179.3 103.63 179.303 103.821 179.309 103.986C179.314 104.124 179.324 104.315 179.349 104.457L180.333 104.278ZM180.333 102.606H181.333C181.333 102.612 181.334 102.694 181.294 102.805C181.25 102.929 181.181 103.019 181.128 103.071L180.421 102.364L179.714 101.657C179.596 101.775 179.483 101.931 179.411 102.132C179.344 102.32 179.333 102.49 179.333 102.606H180.333ZM180.421 102.364L181.221 102.964C181.05 103.192 180.835 103.267 180.828 103.27C180.799 103.281 180.778 103.288 180.768 103.291C180.757 103.294 180.75 103.295 180.75 103.295C180.75 103.295 180.753 103.295 180.76 103.293C180.767 103.292 180.777 103.29 180.79 103.289C180.816 103.285 180.85 103.28 180.893 103.276C181.07 103.257 181.334 103.241 181.672 103.227C182.343 103.2 183.233 103.188 184.143 103.182C185.05 103.177 185.965 103.178 186.686 103.178C187.045 103.178 187.358 103.178 187.595 103.176C187.803 103.175 188.02 103.172 188.133 103.161L188.033 102.166L187.934 101.171C187.937 101.171 187.839 101.174 187.581 101.176C187.352 101.178 187.046 101.178 186.686 101.178C185.969 101.178 185.046 101.177 184.131 101.183C183.217 101.188 182.299 101.2 181.592 101.229C181.242 101.243 180.925 101.261 180.682 101.287C180.563 101.3 180.435 101.317 180.319 101.342C180.263 101.355 180.18 101.375 180.091 101.411C180.046 101.429 179.805 101.52 179.621 101.764L180.421 102.364ZM192.313 103.86L191.32 103.977L191.447 105.058L192.514 104.84L192.313 103.86ZM197.351 108.898L198.298 109.221L198.299 109.218L197.351 108.898ZM189.651 111.956L189.71 110.958L189.707 110.958L189.651 111.956ZM188.771 111.34L187.781 111.201L187.781 111.205L188.771 111.34ZM188.969 107.094L187.97 107.128L187.971 107.141L188.969 107.094ZM188.529 102.584L187.543 102.748L187.547 102.771L187.552 102.794L188.529 102.584ZM188.463 101.99L189.263 102.59V102.59L188.463 101.99ZM189.321 101.704L189.432 102.698L189.443 102.697L189.454 102.695L189.321 101.704ZM191.565 101.528L191.499 102.526L191.532 102.528H191.565V101.528ZM191.895 101.726L192.767 101.236L192.735 101.179L192.695 101.126L191.895 101.726ZM192.423 109.184H191.423V109.822L192.001 110.091L192.423 109.184ZM194.249 107.248L193.26 107.393L193.261 107.402L193.263 107.409L194.249 107.248ZM192.445 106.654L191.884 105.827L191.428 106.136L191.446 106.687L192.445 106.654ZM192.313 103.86L192.514 104.84C194.285 104.478 195.431 104.897 196.023 105.518C196.605 106.129 196.879 107.173 196.404 108.578L197.351 108.898L198.299 109.218C198.946 107.301 198.692 105.419 197.47 104.138C196.258 102.867 194.324 102.428 192.113 102.88L192.313 103.86ZM197.351 108.898L196.405 108.575C196.037 109.654 195.385 110.26 194.369 110.613C193.276 110.993 191.755 111.077 189.71 110.958L189.651 111.956L189.593 112.954C191.684 113.077 193.54 113.018 195.026 112.502C196.59 111.958 197.72 110.914 198.298 109.221L197.351 108.898ZM189.651 111.956L189.707 110.958C189.639 110.954 189.579 110.947 189.531 110.937C189.48 110.927 189.472 110.92 189.491 110.93C189.511 110.94 189.601 110.99 189.677 111.113C189.763 111.253 189.773 111.393 189.762 111.475L188.771 111.34L187.781 111.205C187.736 111.529 187.791 111.865 187.974 112.162C188.147 112.443 188.387 112.612 188.586 112.713C188.957 112.901 189.367 112.942 189.596 112.954L189.651 111.956ZM188.771 111.34L189.762 111.479C189.968 110.01 190.037 108.517 189.968 107.047L188.969 107.094L187.971 107.141C188.034 108.487 187.971 109.854 187.781 111.201L188.771 111.34ZM188.969 107.094L189.969 107.06C189.957 106.706 189.877 105.703 189.786 104.738C189.698 103.796 189.589 102.755 189.507 102.374L188.529 102.584L187.552 102.794C187.602 103.029 187.702 103.924 187.795 104.924C187.886 105.9 187.96 106.844 187.97 107.128L188.969 107.094ZM188.529 102.584L189.516 102.42C189.509 102.379 189.501 102.339 189.495 102.313C189.489 102.284 189.482 102.253 189.476 102.228C189.464 102.173 189.454 102.129 189.447 102.092C189.439 102.048 189.442 102.047 189.442 102.074C189.443 102.087 189.444 102.136 189.432 102.206C189.426 102.242 189.414 102.295 189.391 102.357C189.368 102.418 189.329 102.502 189.263 102.59L188.463 101.99L187.663 101.39C187.522 101.579 187.478 101.77 187.461 101.865C187.443 101.972 187.441 102.066 187.443 102.129C187.447 102.255 187.466 102.372 187.48 102.449C187.495 102.533 187.513 102.613 187.525 102.667C187.541 102.739 187.543 102.751 187.543 102.748L188.529 102.584ZM188.463 101.99L189.263 102.59C189.199 102.676 189.135 102.725 189.105 102.746C189.073 102.769 189.051 102.779 189.05 102.78C189.049 102.78 189.072 102.77 189.128 102.755C189.18 102.741 189.239 102.728 189.297 102.718C189.355 102.707 189.404 102.701 189.432 102.698L189.321 101.704L189.211 100.71C189.078 100.725 188.843 100.76 188.607 100.824C188.49 100.855 188.344 100.901 188.201 100.969C188.081 101.025 187.844 101.149 187.663 101.39L188.463 101.99ZM189.321 101.704L189.454 102.695C189.594 102.676 190.053 102.629 190.529 102.588C190.764 102.567 190.994 102.55 191.182 102.538C191.276 102.533 191.355 102.529 191.417 102.527C191.486 102.525 191.508 102.526 191.499 102.526L191.565 101.528L191.632 100.53C191.371 100.513 190.798 100.557 190.358 100.595C189.876 100.636 189.379 100.688 189.189 100.713L189.321 101.704ZM191.565 101.528V102.528C191.363 102.528 191.235 102.449 191.201 102.426C191.158 102.398 191.126 102.367 191.095 102.326L191.895 101.726L192.695 101.126C192.599 100.997 192.468 100.867 192.31 100.762C192.159 100.662 191.9 100.528 191.565 100.528V101.528ZM191.895 101.726L191.024 102.216C190.998 102.17 191.02 102.2 191.066 102.389C191.103 102.544 191.141 102.74 191.176 102.95C191.246 103.369 191.299 103.796 191.32 103.977L192.313 103.86L193.307 103.743C193.284 103.55 193.227 103.086 193.148 102.619C193.109 102.387 193.063 102.141 193.01 101.922C192.966 101.736 192.892 101.458 192.767 101.236L191.895 101.726ZM192.423 109.184L192.001 110.091C192.487 110.317 193.005 110.395 193.508 110.275C194.009 110.155 194.399 109.861 194.674 109.513C195.203 108.843 195.371 107.912 195.236 107.087L194.249 107.248L193.263 107.409C193.326 107.794 193.219 108.128 193.105 108.272C193.081 108.303 193.062 108.318 193.053 108.324C193.045 108.329 193.042 108.33 193.042 108.33C193.041 108.33 193.038 108.331 193.033 108.331C193.028 108.331 193.019 108.331 193.005 108.329C192.976 108.326 192.924 108.314 192.845 108.277L192.423 109.184ZM194.249 107.248L195.239 107.103C195.109 106.223 194.422 105.734 193.823 105.555C193.227 105.378 192.483 105.42 191.884 105.827L192.445 106.654L193.007 107.481C193.009 107.48 193.035 107.465 193.089 107.458C193.143 107.452 193.202 107.457 193.252 107.472C193.303 107.487 193.317 107.504 193.309 107.496C193.294 107.481 193.267 107.443 193.26 107.393L194.249 107.248ZM192.445 106.654L191.446 106.687C191.468 107.338 191.423 108.442 191.423 109.184H192.423H193.423C193.423 108.606 193.467 107.29 193.445 106.621L192.445 106.654Z" fill="#9A4D2D" mask="url(#path-1-outside-1_2001_3)"/>
<path d="M139.769 0.5C141.082 0.49623 142.378 0.564324 143.215 0.702148C145.021 1.01272 147.338 1.80027 149.047 2.70312V2.7041C154.902 5.8362 158.856 11.7014 159.588 18.3398V18.3408C159.674 19.1165 159.75 21.4489 159.75 23.5342V27.7979L160.225 27.8223L161.995 27.9141H161.999C163.201 27.9661 164.085 28.1174 164.828 28.4072C165.564 28.6944 166.191 29.1293 166.859 29.793L166.862 29.7959C167.606 30.5223 168.15 31.4509 168.474 32.5195V32.5215C168.592 32.9064 168.669 33.2113 168.709 35.8359C168.748 38.4444 168.752 43.2892 168.752 52.7021C168.752 62.0009 168.748 66.85 168.711 69.4854C168.673 72.1409 168.599 72.4924 168.489 72.8525C167.96 74.5757 166.66 76.092 165.018 76.8682L165.014 76.8701L164.11 77.3076H115.581L114.679 76.8701L114.674 76.8682C113.032 76.092 111.731 74.5757 111.202 72.8525C111.092 72.4924 111.018 72.1408 110.98 69.4854C110.943 66.85 110.939 62.0009 110.939 52.7021C110.939 43.2892 110.943 38.4444 110.982 35.8359C111.022 33.2114 111.1 32.9064 111.218 32.5215V32.5195C111.541 31.4509 112.085 30.5223 112.829 29.7959L112.832 29.793C113.501 29.1293 114.128 28.6944 114.865 28.4072C115.61 28.1175 116.497 27.9661 117.707 27.9141H117.712L119.468 27.8223L119.941 27.7979V23.4277C119.941 19.2234 120.077 17.6149 120.602 15.5312V15.5303C121.947 10.1308 125.681 5.36189 130.645 2.7041L130.644 2.70312C132.297 1.82777 134.677 0.996907 136.343 0.717773C137.166 0.579861 138.455 0.503774 139.769 0.5ZM140.223 45.8408C139.854 45.7673 139.398 45.7379 139.055 45.8799L139.054 45.8809C138.435 46.1382 137.886 46.6381 137.544 47.2305L137.41 47.4893L137.406 47.4971C136.376 49.8726 139.1 52.1084 141.265 50.752L141.266 50.7529C142.824 49.7787 142.882 47.5559 141.493 46.4102L141.354 46.3027C141.037 46.0719 140.61 45.9181 140.223 45.8408ZM139.9 4.13379C139.538 4.13854 138.96 4.16954 138.424 4.21484C132.284 4.73377 126.778 9.01957 124.657 14.874L124.656 14.877C124.233 16.0649 123.99 16.8321 123.85 17.9287C123.712 19.0043 123.675 20.393 123.638 22.8262L123.562 27.3604L123.554 27.8691H128.907L128.913 27.375L128.974 22.46C129.004 20.0384 129.019 18.8312 129.075 18.0752C129.129 17.3561 129.217 17.0761 129.412 16.4971L129.413 16.4941C129.93 14.9219 130.686 13.6637 131.803 12.502C132.844 11.432 133.967 10.6944 135.556 10.0791L135.559 10.0771C136.087 9.86862 136.316 9.78374 136.808 9.7373C137.342 9.68688 138.158 9.68652 139.846 9.68652H143.126L144.268 10.1387H144.27C147.206 11.2863 149.29 13.4861 150.278 16.4941L150.279 16.4971C150.474 17.0761 150.562 17.3561 150.616 18.0752C150.673 18.8312 150.689 20.0383 150.719 22.46L150.778 27.375L150.784 27.8691H156.138L156.129 27.3604L156.054 22.8262C156.016 20.393 155.979 19.0043 155.842 17.9287C155.702 16.8321 155.458 16.0649 155.035 14.877L155.034 14.874C154.183 12.5193 152.834 10.4455 151.008 8.70312C148.401 6.21598 144.831 4.51466 141.611 4.26074C141.021 4.2135 140.407 4.16995 140.218 4.14258L140.2 4.13965L140.182 4.13867L139.9 4.13379ZM141.047 13.2588C138.124 12.9568 135.904 13.5948 134.301 15.3457L134.3 15.3467C133.58 16.1393 133.134 16.6885 132.902 17.7549C132.74 18.5017 132.682 19.511 132.65 21.0723L132.624 22.8291L132.579 27.3633L132.574 27.8691H147.117L147.112 27.3633L147.067 22.8291C147.038 20.2135 147.006 18.7507 146.79 17.7549C146.559 16.6884 146.112 16.1393 145.392 15.3467L145.391 15.3457L145.192 15.1367C144.191 14.1202 143.062 13.5491 141.646 13.333L141.642 13.332L141.047 13.2588ZM138.095 54.7812L137.818 54.6436L136.963 54.2178L136.96 54.2158C135.258 53.3806 133.91 51.4881 133.588 49.459C133.075 46.1627 135.347 42.866 138.614 42.1602C139.029 42.0752 139.646 42.0575 140.297 42.1123C140.947 42.1671 141.579 42.2901 142.023 42.458C146.335 44.0942 147.576 49.7267 144.342 53.0146C143.942 53.4076 143.327 53.8817 142.911 54.126L142.746 54.2158L141.876 54.6416L141.596 54.7793V59.0771C141.596 60.9423 141.592 61.9216 141.554 62.4961C141.535 62.7807 141.51 62.9391 141.481 63.043C141.457 63.1335 141.426 63.1957 141.371 63.2871C141.269 63.4524 141.019 63.6751 140.688 63.8623C140.355 64.0498 140.038 64.1465 139.846 64.1465C139.653 64.1465 139.336 64.0498 139.004 63.8623C138.713 63.6984 138.486 63.5075 138.365 63.3516L138.32 63.2871C138.265 63.1957 138.235 63.1335 138.21 63.043C138.181 62.9391 138.157 62.7807 138.138 62.4961C138.1 61.9216 138.095 60.9423 138.095 59.0771V54.7812ZM165.102 33.6553L165.019 33.5303L164.688 33.0283L164.679 33.0127L164.491 32.7705C164.316 32.5578 164.103 32.3291 163.914 32.168L163.805 32.0801L163.389 31.7637L163.255 31.6621L163.087 31.6611L140.102 31.6309C133.77 31.6233 127.974 31.6314 123.73 31.6504C121.609 31.6599 119.874 31.6718 118.654 31.6865C118.045 31.6939 117.562 31.7024 117.224 31.7109C117.055 31.7152 116.919 31.7198 116.82 31.7246C116.771 31.727 116.727 31.7294 116.691 31.7324C116.68 31.7334 116.601 31.7381 116.529 31.7607C116.22 31.8587 115.799 32.1069 115.543 32.3604C115.396 32.4984 115.102 32.6839 114.936 33.1523C114.792 33.5567 114.72 34.2 114.674 35.3672C114.58 37.7386 114.591 42.5629 114.591 52.748V71.7549L114.679 71.8828L115.023 72.3848C115.254 72.744 115.695 73.1525 116.037 73.3535C116.111 73.3982 116.21 73.4579 116.362 73.5059C116.506 73.5511 116.68 73.5816 116.914 73.6055C117.379 73.653 118.177 73.6832 119.65 73.7031C122.609 73.7431 128.371 73.7432 139.846 73.7432C151.32 73.7432 157.083 73.7431 160.041 73.7031C161.514 73.6832 162.312 73.653 162.777 73.6055C163.011 73.5816 163.186 73.5512 163.33 73.5059C163.486 73.4566 163.586 73.3947 163.66 73.3496C164.001 73.1474 164.439 72.7419 164.668 72.3848L165.014 71.8828L165.102 71.7549V33.6553Z" fill="#E26029" stroke="#9A4D2D"/>
</svg>
