<svg width="12" height="13" viewBox="0 0 12 13" fill="none" xmlns="http://www.w3.org/2000/svg">
<path d="M2.14367 0.0465279C1.7814 0.154195 1.62649 0.283397 0.914439 1.08014C0.334801 1.72883 0.22487 1.89303 0.109942 2.26179C0.0749641 2.37215 0.0349891 2.55249 0.0175 2.66285C-0.0174781 2.9051 0.00250941 3.52419 0.0549766 3.83105C0.249855 4.97232 0.879461 6.4366 1.71894 7.70439C2.80575 9.34632 4.13742 10.6841 5.65147 11.6612C7.46784 12.8321 9.05934 13.2627 10.0337 12.8428C10.3385 12.7109 10.5234 12.5494 11.1405 11.8765C11.9101 11.034 12 10.8752 12 10.3449C11.9975 10.0354 11.95 9.85505 11.7976 9.60472C11.7477 9.52397 11.3079 9.02601 10.8157 8.49844C10.0287 7.65325 9.90631 7.53212 9.75141 7.44599C9.46659 7.28987 9.18926 7.25219 8.90194 7.33024C8.60712 7.41369 8.4847 7.51059 7.93255 8.09738L7.41037 8.64917L7.18302 8.51728C6.05872 7.86858 4.59963 6.28049 4.07746 5.12844L4.0125 4.98578L4.4847 4.47705C4.74454 4.19442 5.00438 3.89026 5.05934 3.79875C5.20425 3.56457 5.27171 3.33039 5.27171 3.0693C5.27171 2.81089 5.23923 2.67631 5.12181 2.43137C5.04435 2.26448 4.92693 2.1299 4.11993 1.25779C3.12805 0.189187 3.0531 0.121895 2.71831 0.0384521C2.50844 -0.0153818 2.34604 -0.0126896 2.14367 0.0465279ZM2.66834 0.886335C2.71581 0.910561 3.14055 1.34931 3.61025 1.85804C4.39476 2.70592 4.46472 2.79205 4.49969 2.91587C4.57715 3.20388 4.4972 3.33039 3.80013 4.05446C3.24548 4.63048 3.2055 4.69508 3.22549 4.96156C3.23549 5.10152 3.26547 5.19573 3.39039 5.47029C3.72268 6.19435 4.21237 6.88612 4.9769 7.70708C5.62899 8.40961 6.27858 8.93449 6.94566 9.30595C7.26047 9.48091 7.30044 9.49706 7.44035 9.49706C7.54529 9.49706 7.62524 9.47821 7.69769 9.44053C7.75766 9.40554 8.04248 9.12829 8.37727 8.77299C8.84697 8.27234 8.9719 8.15659 9.05434 8.12968C9.32168 8.04623 9.36165 8.07854 10.331 9.12829C11.193 10.0596 11.263 10.1511 11.263 10.3584C11.263 10.5468 11.1805 10.6679 10.6458 11.2547C10.0762 11.8792 10.0087 11.9492 9.83386 12.0434C9.37664 12.2937 8.61712 12.221 7.67771 11.8361C6.11868 11.1955 4.44223 9.91696 3.25547 8.46614C2.46597 7.49713 1.89632 6.5981 1.44411 5.60756C0.744545 4.0733 0.572153 2.92933 0.939423 2.26987C1.01438 2.13528 2.10369 0.948244 2.20613 0.891719C2.36603 0.797509 2.50594 0.797509 2.66834 0.886335Z" fill="#1E1D08"/>
</svg>
